<svg xmlns="http://www.w3.org/2000/svg" xmlns:xlink="http://www.w3.org/1999/xlink" version="1.2" width="210.00mm" height="297.00mm" viewBox="0 0 74.6885 105.6309">
<style type="text/css">
<![CDATA[
tspan { white-space: pre; }
]]>
</style>
<!-- Page: 1/1 -->
<g transform="translate(26.2157, 5.3604)">
<text font-family="serif" font-weight="bold" font-size="3.4923" text-anchor="start" fill="currentColor">
<tspan>Black Magic</tspan>
</text>
</g>
<g transform="translate(57.5599, 8.8604)">
<text font-family="serif" font-size="2.2003" text-anchor="start" fill="currentColor">
<tspan>Magic Wands</tspan>
</text>
</g>
<g transform="translate(3.5566, 17.8417)">
<line stroke-linejoin="round" stroke-linecap="round" stroke-width="0.0754" stroke="currentColor" x1="0.0377" y1="0" x2="67.5376" y2="0"/>
</g>
<g transform="translate(3.5566, 16.8417)">
<line stroke-linejoin="round" stroke-linecap="round" stroke-width="0.0754" stroke="currentColor" x1="0.0377" y1="0" x2="67.5376" y2="0"/>
</g>
<g transform="translate(3.5566, 15.8417)">
<line stroke-linejoin="round" stroke-linecap="round" stroke-width="0.0754" stroke="currentColor" x1="0.0377" y1="0" x2="67.5376" y2="0"/>
</g>
<g transform="translate(3.5566, 14.8417)">
<line stroke-linejoin="round" stroke-linecap="round" stroke-width="0.0754" stroke="currentColor" x1="0.0377" y1="0" x2="67.5376" y2="0"/>
</g>
<g transform="translate(3.5566, 13.8417)">
<line stroke-linejoin="round" stroke-linecap="round" stroke-width="0.0754" stroke="currentColor" x1="0.0377" y1="0" x2="67.5376" y2="0"/>
</g>
<g transform="translate(43.6398, 9.8085)">
<rect x="0.0000" y="8.0708" width="0.1432" height="4.7123" ry="0.0000" fill="currentColor"/>
</g>
<g transform="translate(43.6398, 24.8417)">
<rect x="0.0000" y="-2.2877" width="0.1432" height="4.5377" ry="0.0000" fill="currentColor"/>
</g>
<g transform="translate(69.6277, 15.3417)">
<path transform="scale(0.0040, -0.0040)" d="M0 0c0 32 25 57 57 57s57 -25 57 -57s-25 -57 -57 -57s-57 25 -57 57z" fill="currentColor"/>
</g>
<g transform="translate(69.6277, 16.3417)">
<path transform="scale(0.0040, -0.0040)" d="M0 0c0 32 25 57 57 57s57 -25 57 -57s-25 -57 -57 -57s-57 25 -57 57z" fill="currentColor"/>
</g>
<g transform="translate(70.6797, 15.8417)">
<rect x="0.0000" y="-2.0000" width="0.4521" height="4.0377" ry="0.0000" fill="currentColor"/>
</g>
<g transform="translate(70.3105, 15.8417)">
<rect x="0.0000" y="-2.0000" width="0.1432" height="4.0377" ry="0.0000" fill="currentColor"/>
</g>
<g transform="translate(69.6277, 23.3417)">
<path transform="scale(0.0040, -0.0040)" d="M0 0c0 32 25 57 57 57s57 -25 57 -57s-25 -57 -57 -57s-57 25 -57 57z" fill="currentColor"/>
</g>
<g transform="translate(69.6277, 26.3417)">
<path transform="scale(0.0040, -0.0040)" d="M0 0c0 32 25 57 57 57s57 -25 57 -57s-25 -57 -57 -57s-57 25 -57 57z" fill="currentColor"/>
</g>
<g transform="translate(70.6797, 24.8417)">
<rect x="0.0000" y="-2.2877" width="0.4521" height="4.5377" ry="0.0000" fill="currentColor"/>
</g>
<g transform="translate(70.3105, 24.8417)">
<rect x="0.0000" y="-2.2877" width="0.1432" height="4.5377" ry="0.0000" fill="currentColor"/>
</g>
<g transform="translate(70.6797, 9.8085)">
<rect x="0.0000" y="8.0708" width="0.4521" height="4.7123" ry="0.0000" fill="currentColor"/>
</g>
<g transform="translate(70.3105, 9.8085)">
<rect x="0.0000" y="8.0708" width="0.1432" height="4.7123" ry="0.0000" fill="currentColor"/>
</g>
<g transform="translate(43.6398, 15.8417)">
<rect x="0.0000" y="-2.0000" width="0.1432" height="4.0377" ry="0.0000" fill="currentColor"/>
</g>
<g transform="translate(3.5566, 27.0917)">
<line stroke-linejoin="round" stroke-linecap="round" stroke-width="0.0754" stroke="currentColor" x1="0.0377" y1="0" x2="67.5376" y2="0"/>
</g>
<g transform="translate(3.5566, 25.5917)">
<line stroke-linejoin="round" stroke-linecap="round" stroke-width="0.0754" stroke="currentColor" x1="0.0377" y1="0" x2="67.5376" y2="0"/>
</g>
<g transform="translate(3.5566, 24.0917)">
<line stroke-linejoin="round" stroke-linecap="round" stroke-width="0.0754" stroke="currentColor" x1="0.0377" y1="0" x2="67.5376" y2="0"/>
</g>
<g transform="translate(3.5566, 22.5917)">
<line stroke-linejoin="round" stroke-linecap="round" stroke-width="0.0754" stroke="currentColor" x1="0.0377" y1="0" x2="67.5376" y2="0"/>
</g>
<g color="rgb(100.0000%, 100.0000%, 100.0000%)">
<g transform="translate(57.2936, 25.5917)">
<rect x="0.1003" y="-0.6295" width="1.0030" height="1.2590" ry="0.0000" fill="currentColor"/>
</g>
</g>
<g transform="translate(57.3939, 26.1999)">
<text font-family="serif" font-weight="bold" font-size="1.7463" text-anchor="start" fill="currentColor">
<tspan>6</tspan>
</text>
</g>
<g transform="translate(51.3006, 15.8417)">
<rect x="-0.0490" y="-0.8033" width="0.0980" height="2.8033" ry="0.0250" fill="currentColor"/>
</g>
<g color="rgb(100.0000%, 100.0000%, 100.0000%)">
<g transform="translate(51.2516, 25.5917)">
<rect x="0.1003" y="-0.6295" width="1.0030" height="1.2590" ry="0.0000" fill="currentColor"/>
</g>
</g>
<g transform="translate(51.3519, 26.1999)">
<text font-family="serif" font-weight="bold" font-size="1.7463" text-anchor="start" fill="currentColor">
<tspan>9</tspan>
</text>
</g>
<g transform="translate(51.2516, 14.8417)">
<path transform="scale(0.0040, -0.0040)" d="M222 135c53 0 104 -27 104 -86c0 -71 -56 -120 -103 -148c-36 -22 -76 -36 -118 -36c-53 0 -105 27 -105 86c0 71 57 120 104 148c36 22 76 36 118 36z" fill="currentColor"/>
</g>
<g transform="translate(54.3351, 14.8417)">
<path transform="scale(0.0040, -0.0040)" d="M222 135c53 0 104 -27 104 -86c0 -71 -56 -120 -103 -148c-36 -22 -76 -36 -118 -36c-53 0 -105 27 -105 86c0 71 57 120 104 148c36 22 76 36 118 36z" fill="currentColor"/>
</g>
<g color="rgb(100.0000%, 100.0000%, 100.0000%)">
<g transform="translate(54.3351, 25.5917)">
<rect x="0.1003" y="-0.6295" width="1.0030" height="1.2590" ry="0.0000" fill="currentColor"/>
</g>
</g>
<g transform="translate(54.4354, 26.1999)">
<text font-family="serif" font-weight="bold" font-size="1.7463" text-anchor="start" fill="currentColor">
<tspan>9</tspan>
</text>
</g>
<g transform="translate(54.3841, 15.8417)">
<rect x="-0.0490" y="-0.8033" width="0.0980" height="2.8033" ry="0.0250" fill="currentColor"/>
</g>
<g transform="translate(57.2936, 15.8417)">
<path transform="scale(0.0040, -0.0040)" d="M222 135c53 0 104 -27 104 -86c0 -71 -56 -120 -103 -148c-36 -22 -76 -36 -118 -36c-53 0 -105 27 -105 86c0 71 57 120 104 148c36 22 76 36 118 36z" fill="currentColor"/>
</g>
<g transform="translate(45.1335, 15.8417)">
<rect x="-0.0490" y="-0.8033" width="0.0980" height="2.8033" ry="0.0250" fill="currentColor"/>
</g>
<g transform="translate(19.9723, 14.0440)">
<polygon stroke-linejoin="round" stroke-linecap="round" stroke-width="0.0500" fill="currentColor" stroke="currentColor" points="9.3235 -0.2150 9.3235 0.2150 0.0250 0.2150 0.0250 -0.2150"/>
</g>
<g transform="translate(48.1681, 14.8417)">
<path transform="scale(0.0040, -0.0040)" d="M222 135c53 0 104 -27 104 -86c0 -71 -56 -120 -103 -148c-36 -22 -76 -36 -118 -36c-53 0 -105 27 -105 86c0 71 57 120 104 148c36 22 76 36 118 36z" fill="currentColor"/>
</g>
<g color="rgb(100.0000%, 100.0000%, 100.0000%)">
<g transform="translate(48.1681, 25.5917)">
<rect x="0.1003" y="-0.6295" width="1.0030" height="1.2590" ry="0.0000" fill="currentColor"/>
</g>
</g>
<g transform="translate(48.2684, 26.1999)">
<text font-family="serif" font-weight="bold" font-size="1.7463" text-anchor="start" fill="currentColor">
<tspan>9</tspan>
</text>
</g>
<g transform="translate(48.2170, 15.8417)">
<rect x="-0.0490" y="-0.8033" width="0.0980" height="2.8033" ry="0.0250" fill="currentColor"/>
</g>
<g transform="translate(66.5441, 15.8417)">
<path transform="scale(0.0040, -0.0040)" d="M222 135c53 0 104 -27 104 -86c0 -71 -56 -120 -103 -148c-36 -22 -76 -36 -118 -36c-53 0 -105 27 -105 86c0 71 57 120 104 148c36 22 76 36 118 36z" fill="currentColor"/>
</g>
<g transform="translate(66.5441, 13.3040)">
<text font-family="serif" font-size="1.7463" text-anchor="start" fill="currentColor">
<tspan>21×</tspan>
</text>
</g>
<g color="rgb(100.0000%, 100.0000%, 100.0000%)">
<g transform="translate(66.5441, 25.5917)">
<rect x="0.1003" y="-0.6295" width="1.0030" height="1.2590" ry="0.0000" fill="currentColor"/>
</g>
</g>
<g transform="translate(66.6444, 26.1999)">
<text font-family="serif" font-weight="bold" font-size="1.7463" text-anchor="start" fill="currentColor">
<tspan>6</tspan>
</text>
</g>
<g transform="translate(66.5931, 15.8417)">
<rect x="-0.0490" y="0.1967" width="0.0980" height="2.8033" ry="0.0250" fill="currentColor"/>
</g>
<g transform="translate(57.2936, 18.8417)">
<polygon stroke-linejoin="round" stroke-linecap="round" stroke-width="0.0500" fill="currentColor" stroke="currentColor" points="9.3235 -0.2150 9.3235 0.2150 0.0250 0.2150 0.0250 -0.2150"/>
</g>
<g transform="translate(45.0846, 17.8417)">
<polygon stroke-linejoin="round" stroke-linecap="round" stroke-width="0.0500" fill="currentColor" stroke="currentColor" points="9.3235 -0.2150 9.3235 0.2150 0.0250 0.2150 0.0250 -0.2150"/>
</g>
<g transform="translate(32.4313, 13.0440)">
<polygon stroke-linejoin="round" stroke-linecap="round" stroke-width="0.0500" fill="currentColor" stroke="currentColor" points="9.3235 -0.2150 9.3235 0.2150 0.0250 0.2150 0.0250 -0.2150"/>
</g>
<g transform="translate(60.3771, 15.8417)">
<path transform="scale(0.0040, -0.0040)" d="M222 135c53 0 104 -27 104 -86c0 -71 -56 -120 -103 -148c-36 -22 -76 -36 -118 -36c-53 0 -105 27 -105 86c0 71 57 120 104 148c36 22 76 36 118 36z" fill="currentColor"/>
</g>
<g color="rgb(100.0000%, 100.0000%, 100.0000%)">
<g transform="translate(60.3771, 25.5917)">
<rect x="0.1003" y="-0.6295" width="1.0030" height="1.2590" ry="0.0000" fill="currentColor"/>
</g>
</g>
<g transform="translate(60.4774, 26.1999)">
<text font-family="serif" font-weight="bold" font-size="1.7463" text-anchor="start" fill="currentColor">
<tspan>6</tspan>
</text>
</g>
<g transform="translate(60.4261, 15.8417)">
<rect x="-0.0490" y="0.1967" width="0.0980" height="2.8033" ry="0.0250" fill="currentColor"/>
</g>
<g transform="translate(57.3426, 15.8417)">
<rect x="-0.0490" y="0.1967" width="0.0980" height="2.8033" ry="0.0250" fill="currentColor"/>
</g>
<g transform="translate(63.4606, 15.8417)">
<path transform="scale(0.0040, -0.0040)" d="M222 135c53 0 104 -27 104 -86c0 -71 -56 -120 -103 -148c-36 -22 -76 -36 -118 -36c-53 0 -105 27 -105 86c0 71 57 120 104 148c36 22 76 36 118 36z" fill="currentColor"/>
</g>
<g color="rgb(100.0000%, 100.0000%, 100.0000%)">
<g transform="translate(63.4606, 25.5917)">
<rect x="0.1003" y="-0.6295" width="1.0030" height="1.2590" ry="0.0000" fill="currentColor"/>
</g>
</g>
<g transform="translate(63.5609, 26.1999)">
<text font-family="serif" font-weight="bold" font-size="1.7463" text-anchor="start" fill="currentColor">
<tspan>6</tspan>
</text>
</g>
<g transform="translate(63.5096, 15.8417)">
<rect x="-0.0490" y="0.1967" width="0.0980" height="2.8033" ry="0.0250" fill="currentColor"/>
</g>
<g transform="translate(26.1883, 15.8417)">
<rect x="-0.0490" y="-1.7977" width="0.0980" height="3.1009" ry="0.0250" fill="currentColor"/>
</g>
<g color="rgb(100.0000%, 100.0000%, 100.0000%)">
<g transform="translate(24.9314, 27.0917)">
<rect x="0.1003" y="-0.6295" width="1.0030" height="1.2590" ry="0.0000" fill="currentColor"/>
</g>
</g>
<g transform="translate(25.0317, 27.6999)">
<text font-family="serif" font-weight="bold" font-size="1.7463" text-anchor="start" fill="currentColor">
<tspan>6</tspan>
</text>
</g>
<g transform="translate(24.9314, 17.3417)">
<path transform="scale(0.0040, -0.0040)" d="M222 135c53 0 104 -27 104 -86c0 -71 -56 -120 -103 -148c-36 -22 -76 -36 -118 -36c-53 0 -105 27 -105 86c0 71 57 120 104 148c36 22 76 36 118 36z" fill="currentColor"/>
</g>
<g transform="translate(23.1048, 15.8417)">
<rect x="-0.0490" y="-1.7977" width="0.0980" height="3.1009" ry="0.0250" fill="currentColor"/>
</g>
<g color="rgb(100.0000%, 100.0000%, 100.0000%)">
<g transform="translate(21.8479, 27.0917)">
<rect x="0.1003" y="-0.6295" width="1.0030" height="1.2590" ry="0.0000" fill="currentColor"/>
</g>
</g>
<g transform="translate(21.9482, 27.6999)">
<text font-family="serif" font-weight="bold" font-size="1.7463" text-anchor="start" fill="currentColor">
<tspan>6</tspan>
</text>
</g>
<g transform="translate(21.8479, 17.3417)">
<path transform="scale(0.0040, -0.0040)" d="M222 135c53 0 104 -27 104 -86c0 -71 -56 -120 -103 -148c-36 -22 -76 -36 -118 -36c-53 0 -105 27 -105 86c0 71 57 120 104 148c36 22 76 36 118 36z" fill="currentColor"/>
</g>
<g transform="translate(28.0150, 17.3417)">
<path transform="scale(0.0040, -0.0040)" d="M222 135c53 0 104 -27 104 -86c0 -71 -56 -120 -103 -148c-36 -22 -76 -36 -118 -36c-53 0 -105 27 -105 86c0 71 57 120 104 148c36 22 76 36 118 36z" fill="currentColor"/>
</g>
<g color="rgb(100.0000%, 100.0000%, 100.0000%)">
<g transform="translate(28.0150, 27.0917)">
<rect x="0.1003" y="-0.6295" width="1.0030" height="1.2590" ry="0.0000" fill="currentColor"/>
</g>
</g>
<g transform="translate(28.1153, 27.6999)">
<text font-family="serif" font-weight="bold" font-size="1.7463" text-anchor="start" fill="currentColor">
<tspan>6</tspan>
</text>
</g>
<g transform="translate(18.7644, 17.3417)">
<path transform="scale(0.0040, -0.0040)" d="M222 135c53 0 104 -27 104 -86c0 -71 -56 -120 -103 -148c-36 -22 -76 -36 -118 -36c-53 0 -105 27 -105 86c0 71 57 120 104 148c36 22 76 36 118 36z" fill="currentColor"/>
</g>
<g transform="translate(15.6066, 12.4812)">
<rect x="1.0475" y="-2.6727" width="0.1158" height="2.4974" ry="0.0193" fill="currentColor"/>
</g>
<g transform="translate(15.6066, 12.4812)">
<path transform="scale(0.0036, -0.0036)" d="M222 135c53 0 104 -27 104 -86c0 -71 -56 -120 -103 -148c-36 -22 -76 -36 -118 -36c-53 0 -105 27 -105 86c0 71 57 120 104 148c36 22 76 36 118 36z" fill="currentColor"/>
</g>
<g transform="translate(16.7700, 12.9613)">
<text font-family="serif" font-size="2.2003" text-anchor="start" fill="currentColor">
<tspan> = 116</tspan>
</text>
</g>
<g transform="translate(4.4633, 24.1268)">
<text font-family="sans-serif" font-weight="bold" font-size="1.9599" text-anchor="start" fill="currentColor">
<tspan>T</tspan>
</text>
</g>
<g transform="translate(4.3566, 25.5566)">
<text font-family="sans-serif" font-weight="bold" font-size="1.9599" text-anchor="start" fill="currentColor">
<tspan>A</tspan>
</text>
</g>
<g transform="translate(4.3566, 26.9863)">
<text font-family="sans-serif" font-weight="bold" font-size="1.9599" text-anchor="start" fill="currentColor">
<tspan>B</tspan>
</text>
</g>
<g color="rgb(100.0000%, 100.0000%, 100.0000%)">
<g transform="translate(18.7644, 27.0917)">
<rect x="0.1003" y="-0.6295" width="1.0030" height="1.2590" ry="0.0000" fill="currentColor"/>
</g>
</g>
<g transform="translate(18.8647, 27.6999)">
<text font-family="serif" font-weight="bold" font-size="1.7463" text-anchor="start" fill="currentColor">
<tspan>6</tspan>
</text>
</g>
<g transform="translate(15.6066, 15.8417)">
<path transform="scale(0.0040, -0.0040)" d="M208 319c21 13 42 27 57 47c11 15 18 32 25 49c4 9 20 7 20 -7v-256h68c9 0 13 -7 13 -14s-4 -13 -13 -13h-68v-16c0 -45 26 -88 68 -88c7 0 10 -5 10 -10s-3 -11 -10 -11c-41 0 -82 13 -123 13s-82 -13 -123 -13c-7 0 -10 6 -10 11s3 10 10 10c42 0 68 43 68 88v16h-173
c-21 0 -29 13 -29 21c0 2 1 5 2 6c81 96 146 208 146 333c0 10 7 18 15 15c22 -7 44 -13 67 -13s45 6 67 13c12 4 21 -8 15 -15l-283 -333h173v147c0 8 2 16 8 20z" fill="currentColor"/>
</g>
<g transform="translate(15.6066, 17.8689)">
<path transform="scale(0.0040, -0.0040)" d="M208 319c21 13 42 27 57 47c11 15 18 32 25 49c4 9 20 7 20 -7v-256h68c9 0 13 -7 13 -14s-4 -13 -13 -13h-68v-16c0 -45 26 -88 68 -88c7 0 10 -5 10 -10s-3 -11 -10 -11c-41 0 -82 13 -123 13s-82 -13 -123 -13c-7 0 -10 6 -10 11s3 10 10 10c42 0 68 43 68 88v16h-173
c-21 0 -29 13 -29 21c0 2 1 5 2 6c81 96 146 208 146 333c0 10 7 18 15 15c22 -7 44 -13 67 -13s45 6 67 13c12 4 21 -8 15 -15l-283 -333h173v147c0 8 2 16 8 20z" fill="currentColor"/>
</g>
<g transform="translate(7.8566, 14.8417)">
<path transform="scale(0.0040, -0.0040)" d="M215 -316c0 -9 -8 -17 -17 -17s-17 8 -17 17v151l-87 -31v-162c0 -9 -8 -17 -17 -17s-17 8 -17 17v150l-39 -13c-10 -4 -21 4 -21 15v64c0 7 5 13 11 15l49 18v164l-39 -14c-10 -4 -21 4 -21 15v65c0 7 5 13 11 15l49 17v163c0 9 8 17 17 17s17 -8 17 -17v-151l87 31v162
c0 9 8 17 17 17s17 -8 17 -17v-150l39 13c10 4 21 -4 21 -15v-64c0 -7 -5 -13 -11 -15l-49 -18v-164l39 14c10 4 21 -4 21 -15v-65c0 -7 -5 -13 -11 -15l-49 -17v-163zM94 67v-164l87 30v164z" fill="currentColor"/>
</g>
<g transform="translate(8.9566, 16.3417)">
<path transform="scale(0.0040, -0.0040)" d="M215 -316c0 -9 -8 -17 -17 -17s-17 8 -17 17v151l-87 -31v-162c0 -9 -8 -17 -17 -17s-17 8 -17 17v150l-39 -13c-10 -4 -21 4 -21 15v64c0 7 5 13 11 15l49 18v164l-39 -14c-10 -4 -21 4 -21 15v65c0 7 5 13 11 15l49 17v163c0 9 8 17 17 17s17 -8 17 -17v-151l87 31v162
c0 9 8 17 17 17s17 -8 17 -17v-150l39 13c10 4 21 -4 21 -15v-64c0 -7 -5 -13 -11 -15l-49 -18v-164l39 14c10 4 21 -4 21 -15v-65c0 -7 -5 -13 -11 -15l-49 -17v-163zM94 67v-164l87 30v164z" fill="currentColor"/>
</g>
<g transform="translate(10.0566, 14.3417)">
<path transform="scale(0.0040, -0.0040)" d="M215 -316c0 -9 -8 -17 -17 -17s-17 8 -17 17v151l-87 -31v-162c0 -9 -8 -17 -17 -17s-17 8 -17 17v150l-39 -13c-10 -4 -21 4 -21 15v64c0 7 5 13 11 15l49 18v164l-39 -14c-10 -4 -21 4 -21 15v65c0 7 5 13 11 15l49 17v163c0 9 8 17 17 17s17 -8 17 -17v-151l87 31v162
c0 9 8 17 17 17s17 -8 17 -17v-150l39 13c10 4 21 -4 21 -15v-64c0 -7 -5 -13 -11 -15l-49 -18v-164l39 14c10 4 21 -4 21 -15v-65c0 -7 -5 -13 -11 -15l-49 -17v-163zM94 67v-164l87 30v164z" fill="currentColor"/>
</g>
<g transform="translate(11.1566, 15.8417)">
<path transform="scale(0.0040, -0.0040)" d="M215 -316c0 -9 -8 -17 -17 -17s-17 8 -17 17v151l-87 -31v-162c0 -9 -8 -17 -17 -17s-17 8 -17 17v150l-39 -13c-10 -4 -21 4 -21 15v64c0 7 5 13 11 15l49 18v164l-39 -14c-10 -4 -21 4 -21 15v65c0 7 5 13 11 15l49 17v163c0 9 8 17 17 17s17 -8 17 -17v-151l87 31v162
c0 9 8 17 17 17s17 -8 17 -17v-150l39 13c10 4 21 -4 21 -15v-64c0 -7 -5 -13 -11 -15l-49 -18v-164l39 14c10 4 21 -4 21 -15v-65c0 -7 -5 -13 -11 -15l-49 -17v-163zM94 67v-164l87 30v164z" fill="currentColor"/>
</g>
<g transform="translate(12.2566, 17.3417)">
<path transform="scale(0.0040, -0.0040)" d="M215 -316c0 -9 -8 -17 -17 -17s-17 8 -17 17v151l-87 -31v-162c0 -9 -8 -17 -17 -17s-17 8 -17 17v150l-39 -13c-10 -4 -21 4 -21 15v64c0 7 5 13 11 15l49 18v164l-39 -14c-10 -4 -21 4 -21 15v65c0 7 5 13 11 15l49 17v163c0 9 8 17 17 17s17 -8 17 -17v-151l87 31v162
c0 9 8 17 17 17s17 -8 17 -17v-150l39 13c10 4 21 -4 21 -15v-64c0 -7 -5 -13 -11 -15l-49 -18v-164l39 14c10 4 21 -4 21 -15v-65c0 -7 -5 -13 -11 -15l-49 -17v-163zM94 67v-164l87 30v164z" fill="currentColor"/>
</g>
<g transform="translate(13.3566, 15.3417)">
<path transform="scale(0.0040, -0.0040)" d="M215 -316c0 -9 -8 -17 -17 -17s-17 8 -17 17v151l-87 -31v-162c0 -9 -8 -17 -17 -17s-17 8 -17 17v150l-39 -13c-10 -4 -21 4 -21 15v64c0 7 5 13 11 15l49 18v164l-39 -14c-10 -4 -21 4 -21 15v65c0 7 5 13 11 15l49 17v163c0 9 8 17 17 17s17 -8 17 -17v-151l87 31v162
c0 9 8 17 17 17s17 -8 17 -17v-150l39 13c10 4 21 -4 21 -15v-64c0 -7 -5 -13 -11 -15l-49 -18v-164l39 14c10 4 21 -4 21 -15v-65c0 -7 -5 -13 -11 -15l-49 -17v-163zM94 67v-164l87 30v164z" fill="currentColor"/>
</g>
<g transform="translate(4.9117, 19.0595)">
<text font-family="serif" font-style="italic" font-size="1.3862" text-anchor="start" fill="currentColor">
<tspan>8</tspan>
</text>
</g>
<g transform="translate(4.3566, 14.8417)">
<path transform="scale(0.0040, -0.0040)" d="M556 -125c0 29 23 52 52 52s52 -23 52 -52s-23 -52 -52 -52s-52 23 -52 52zM556 125c0 29 23 52 52 52s52 -23 52 -52s-23 -52 -52 -52s-52 23 -52 52zM233 261c171 0 292 -86 292 -248c0 -263 -264 -415 -517 -521c-2 -2 -5 -3 -8 -3c-6 0 -11 5 -11 11c0 3 1 6 3 8
c203 118 415 265 415 494c0 121 -64 237 -174 237c-79 0 -138 -57 -164 -133c14 8 28 13 43 13c55 0 100 -45 100 -100c0 -58 -44 -107 -100 -107c-60 0 -112 48 -112 107c0 132 103 242 233 242z" fill="currentColor"/>
</g>
<g transform="translate(20.0212, 15.8417)">
<rect x="-0.0490" y="-1.7977" width="0.0980" height="3.1009" ry="0.0250" fill="currentColor"/>
</g>
<g transform="translate(3.5360, 20.4667)">
<rect x="0.0000" y="-6.6627" width="0.1206" height="13.3254" ry="0.0377" fill="currentColor"/>
</g>
<g transform="translate(2.2860, 13.5790)">
<path transform="scale(0.0040, -0.0040)" d="M0 -56v91c0 12 10 21 22 21h43c164 0 281 136 377 272c10 14 32 -1 22 -15c-103 -145 -222 -369 -399 -369h-65z" fill="currentColor"/>
</g>
<g transform="translate(2.2860, 27.3544)">
<path transform="scale(0.0040, -0.0040)" d="M0 56h65c177 0 296 -224 399 -369c10 -14 -12 -29 -22 -15c-96 136 -213 272 -377 272h-43c-12 0 -22 9 -22 21v91z" fill="currentColor"/>
</g>
<g transform="translate(2.2860, 20.4667)">
<rect x="0.0000" y="-6.7077" width="0.4500" height="13.4154" ry="0.0000" fill="currentColor"/>
</g>
<g transform="translate(29.2718, 15.8417)">
<rect x="-0.0490" y="-1.7977" width="0.0980" height="3.1009" ry="0.0250" fill="currentColor"/>
</g>
<g transform="translate(37.3905, 16.3417)">
<path transform="scale(0.0040, -0.0040)" d="M222 135c53 0 104 -27 104 -86c0 -71 -56 -120 -103 -148c-36 -22 -76 -36 -118 -36c-53 0 -105 27 -105 86c0 71 57 120 104 148c36 22 76 36 118 36z" fill="currentColor"/>
</g>
<g color="rgb(100.0000%, 100.0000%, 100.0000%)">
<g transform="translate(37.3905, 27.0917)">
<rect x="0.1003" y="-0.6295" width="1.0030" height="1.2590" ry="0.0000" fill="currentColor"/>
</g>
</g>
<g transform="translate(37.4908, 27.6999)">
<text font-family="serif" font-weight="bold" font-size="1.7463" text-anchor="start" fill="currentColor">
<tspan>9</tspan>
</text>
</g>
<g transform="translate(38.6473, 15.8417)">
<rect x="-0.0490" y="-2.7977" width="0.0980" height="3.1009" ry="0.0250" fill="currentColor"/>
</g>
<g transform="translate(40.4740, 16.3417)">
<path transform="scale(0.0040, -0.0040)" d="M222 135c53 0 104 -27 104 -86c0 -71 -56 -120 -103 -148c-36 -22 -76 -36 -118 -36c-53 0 -105 27 -105 86c0 71 57 120 104 148c36 22 76 36 118 36z" fill="currentColor"/>
</g>
<g color="rgb(100.0000%, 100.0000%, 100.0000%)">
<g transform="translate(40.4740, 27.0917)">
<rect x="0.1003" y="-0.6295" width="1.0030" height="1.2590" ry="0.0000" fill="currentColor"/>
</g>
</g>
<g transform="translate(40.5743, 27.6999)">
<text font-family="serif" font-weight="bold" font-size="1.7463" text-anchor="start" fill="currentColor">
<tspan>9</tspan>
</text>
</g>
<g transform="translate(41.7308, 15.8417)">
<rect x="-0.0490" y="-2.7977" width="0.0980" height="3.1009" ry="0.0250" fill="currentColor"/>
</g>
<g transform="translate(45.0846, 14.8417)">
<path transform="scale(0.0040, -0.0040)" d="M222 135c53 0 104 -27 104 -86c0 -71 -56 -120 -103 -148c-36 -22 -76 -36 -118 -36c-53 0 -105 27 -105 86c0 71 57 120 104 148c36 22 76 36 118 36z" fill="currentColor"/>
</g>
<g color="rgb(100.0000%, 100.0000%, 100.0000%)">
<g transform="translate(45.0846, 25.5917)">
<rect x="0.1003" y="-0.6295" width="1.0030" height="1.2590" ry="0.0000" fill="currentColor"/>
</g>
</g>
<g transform="translate(45.1848, 26.1999)">
<text font-family="serif" font-weight="bold" font-size="1.7463" text-anchor="start" fill="currentColor">
<tspan>9</tspan>
</text>
</g>
<g color="rgb(100.0000%, 100.0000%, 100.0000%)">
<g transform="translate(31.2235, 27.0917)">
<rect x="0.1003" y="-0.6295" width="1.0030" height="1.2590" ry="0.0000" fill="currentColor"/>
</g>
</g>
<g transform="translate(31.3238, 27.6999)">
<text font-family="serif" font-weight="bold" font-size="1.7463" text-anchor="start" fill="currentColor">
<tspan>9</tspan>
</text>
</g>
<g transform="translate(32.4803, 15.8417)">
<rect x="-0.0490" y="-2.7977" width="0.0980" height="3.1009" ry="0.0250" fill="currentColor"/>
</g>
<g transform="translate(31.2235, 16.3417)">
<path transform="scale(0.0040, -0.0040)" d="M222 135c53 0 104 -27 104 -86c0 -71 -56 -120 -103 -148c-36 -22 -76 -36 -118 -36c-53 0 -105 27 -105 86c0 71 57 120 104 148c36 22 76 36 118 36z" fill="currentColor"/>
</g>
<g transform="translate(34.3070, 16.3417)">
<path transform="scale(0.0040, -0.0040)" d="M222 135c53 0 104 -27 104 -86c0 -71 -56 -120 -103 -148c-36 -22 -76 -36 -118 -36c-53 0 -105 27 -105 86c0 71 57 120 104 148c36 22 76 36 118 36z" fill="currentColor"/>
</g>
<g color="rgb(100.0000%, 100.0000%, 100.0000%)">
<g transform="translate(34.3070, 27.0917)">
<rect x="0.1003" y="-0.6295" width="1.0030" height="1.2590" ry="0.0000" fill="currentColor"/>
</g>
</g>
<g transform="translate(34.4073, 27.6999)">
<text font-family="serif" font-weight="bold" font-size="1.7463" text-anchor="start" fill="currentColor">
<tspan>9</tspan>
</text>
</g>
<g transform="translate(35.5638, 15.8417)">
<rect x="-0.0490" y="-2.7977" width="0.0980" height="3.1009" ry="0.0250" fill="currentColor"/>
</g>
<g transform="translate(3.5566, 38.8417)">
<line stroke-linejoin="round" stroke-linecap="round" stroke-width="0.0754" stroke="currentColor" x1="0.0377" y1="0" x2="67.5376" y2="0"/>
</g>
<g transform="translate(3.5566, 37.8417)">
<line stroke-linejoin="round" stroke-linecap="round" stroke-width="0.0754" stroke="currentColor" x1="0.0377" y1="0" x2="67.5376" y2="0"/>
</g>
<g transform="translate(3.5566, 36.8417)">
<line stroke-linejoin="round" stroke-linecap="round" stroke-width="0.0754" stroke="currentColor" x1="0.0377" y1="0" x2="67.5376" y2="0"/>
</g>
<g transform="translate(3.5566, 35.8417)">
<line stroke-linejoin="round" stroke-linecap="round" stroke-width="0.0754" stroke="currentColor" x1="0.0377" y1="0" x2="67.5376" y2="0"/>
</g>
<g transform="translate(3.5566, 34.8417)">
<line stroke-linejoin="round" stroke-linecap="round" stroke-width="0.0754" stroke="currentColor" x1="0.0377" y1="0" x2="67.5376" y2="0"/>
</g>
<g transform="translate(70.9887, 36.8417)">
<rect x="0.0000" y="-2.0000" width="0.1432" height="4.0377" ry="0.0000" fill="currentColor"/>
</g>
<g transform="translate(70.9887, 45.8417)">
<rect x="0.0000" y="-2.2877" width="0.1432" height="4.5377" ry="0.0000" fill="currentColor"/>
</g>
<g transform="translate(47.0492, 32.3678)">
<rect x="0.0000" y="6.5116" width="0.1432" height="4.7123" ry="0.0000" fill="currentColor"/>
</g>
<g transform="translate(70.9887, 32.3678)">
<rect x="0.0000" y="6.5116" width="0.1432" height="4.7123" ry="0.0000" fill="currentColor"/>
</g>
<g transform="translate(47.0492, 45.8417)">
<rect x="0.0000" y="-2.2877" width="0.1432" height="4.5377" ry="0.0000" fill="currentColor"/>
</g>
<g transform="translate(47.0492, 36.8417)">
<rect x="0.0000" y="-2.0000" width="0.1432" height="4.0377" ry="0.0000" fill="currentColor"/>
</g>
<g transform="translate(3.5566, 48.0917)">
<line stroke-linejoin="round" stroke-linecap="round" stroke-width="0.0754" stroke="currentColor" x1="0.0377" y1="0" x2="67.5376" y2="0"/>
</g>
<g transform="translate(3.5566, 46.5917)">
<line stroke-linejoin="round" stroke-linecap="round" stroke-width="0.0754" stroke="currentColor" x1="0.0377" y1="0" x2="67.5376" y2="0"/>
</g>
<g transform="translate(3.5566, 45.0917)">
<line stroke-linejoin="round" stroke-linecap="round" stroke-width="0.0754" stroke="currentColor" x1="0.0377" y1="0" x2="67.5376" y2="0"/>
</g>
<g transform="translate(3.5566, 43.5917)">
<line stroke-linejoin="round" stroke-linecap="round" stroke-width="0.0754" stroke="currentColor" x1="0.0377" y1="0" x2="67.5376" y2="0"/>
</g>
<g transform="translate(26.1645, 36.8417)">
<path transform="scale(0.0040, -0.0040)" d="M-23 -113c0 26 10 40 36 40c34 0 85 -15 130 -37l-137 164c-7 8 -10 17 -10 25c0 33 49 64 86 96c26 22 39 54 39 85c0 24 -8 47 -24 67l-39 46c-2 3 -3 6 -3 9c0 7 7 14 14 14c3 0 7 -1 10 -5l152 -182c7 -8 10 -17 10 -25c0 -33 -49 -64 -86 -96
c-26 -22 -39 -54 -39 -85c0 -24 8 -47 24 -67l87 -104c2 -3 3 -5 3 -8c0 -7 -7 -14 -14 -14c-3 0 -7 1 -10 5c-19 22 -66 43 -102 43c-40 0 -52 -29 -52 -70c0 -35 11 -75 28 -96c6 -7 -4 -16 -10 -9c-46 55 -93 150 -93 204z" fill="currentColor"/>
</g>
<g transform="translate(34.4884, 36.8417)">
<path transform="scale(0.0040, -0.0040)" d="M367 0h-359c-4 0 -8 4 -8 8v140c0 4 4 8 8 8h359c4 0 8 -4 8 -8v-140c0 -4 -4 -8 -8 -8z" fill="currentColor"/>
</g>
<g transform="translate(4.4633, 45.1268)">
<text font-family="sans-serif" font-weight="bold" font-size="1.9599" text-anchor="start" fill="currentColor">
<tspan>T</tspan>
</text>
</g>
<g transform="translate(4.3566, 46.5566)">
<text font-family="sans-serif" font-weight="bold" font-size="1.9599" text-anchor="start" fill="currentColor">
<tspan>A</tspan>
</text>
</g>
<g transform="translate(4.3566, 47.9863)">
<text font-family="sans-serif" font-weight="bold" font-size="1.9599" text-anchor="start" fill="currentColor">
<tspan>B</tspan>
</text>
</g>
<g transform="translate(7.8566, 35.8417)">
<path transform="scale(0.0040, -0.0040)" d="M215 -316c0 -9 -8 -17 -17 -17s-17 8 -17 17v151l-87 -31v-162c0 -9 -8 -17 -17 -17s-17 8 -17 17v150l-39 -13c-10 -4 -21 4 -21 15v64c0 7 5 13 11 15l49 18v164l-39 -14c-10 -4 -21 4 -21 15v65c0 7 5 13 11 15l49 17v163c0 9 8 17 17 17s17 -8 17 -17v-151l87 31v162
c0 9 8 17 17 17s17 -8 17 -17v-150l39 13c10 4 21 -4 21 -15v-64c0 -7 -5 -13 -11 -15l-49 -18v-164l39 14c10 4 21 -4 21 -15v-65c0 -7 -5 -13 -11 -15l-49 -17v-163zM94 67v-164l87 30v164z" fill="currentColor"/>
</g>
<g transform="translate(8.9566, 37.3417)">
<path transform="scale(0.0040, -0.0040)" d="M215 -316c0 -9 -8 -17 -17 -17s-17 8 -17 17v151l-87 -31v-162c0 -9 -8 -17 -17 -17s-17 8 -17 17v150l-39 -13c-10 -4 -21 4 -21 15v64c0 7 5 13 11 15l49 18v164l-39 -14c-10 -4 -21 4 -21 15v65c0 7 5 13 11 15l49 17v163c0 9 8 17 17 17s17 -8 17 -17v-151l87 31v162
c0 9 8 17 17 17s17 -8 17 -17v-150l39 13c10 4 21 -4 21 -15v-64c0 -7 -5 -13 -11 -15l-49 -18v-164l39 14c10 4 21 -4 21 -15v-65c0 -7 -5 -13 -11 -15l-49 -17v-163zM94 67v-164l87 30v164z" fill="currentColor"/>
</g>
<g transform="translate(10.0566, 35.3417)">
<path transform="scale(0.0040, -0.0040)" d="M215 -316c0 -9 -8 -17 -17 -17s-17 8 -17 17v151l-87 -31v-162c0 -9 -8 -17 -17 -17s-17 8 -17 17v150l-39 -13c-10 -4 -21 4 -21 15v64c0 7 5 13 11 15l49 18v164l-39 -14c-10 -4 -21 4 -21 15v65c0 7 5 13 11 15l49 17v163c0 9 8 17 17 17s17 -8 17 -17v-151l87 31v162
c0 9 8 17 17 17s17 -8 17 -17v-150l39 13c10 4 21 -4 21 -15v-64c0 -7 -5 -13 -11 -15l-49 -18v-164l39 14c10 4 21 -4 21 -15v-65c0 -7 -5 -13 -11 -15l-49 -17v-163zM94 67v-164l87 30v164z" fill="currentColor"/>
</g>
<g transform="translate(11.1566, 36.8417)">
<path transform="scale(0.0040, -0.0040)" d="M215 -316c0 -9 -8 -17 -17 -17s-17 8 -17 17v151l-87 -31v-162c0 -9 -8 -17 -17 -17s-17 8 -17 17v150l-39 -13c-10 -4 -21 4 -21 15v64c0 7 5 13 11 15l49 18v164l-39 -14c-10 -4 -21 4 -21 15v65c0 7 5 13 11 15l49 17v163c0 9 8 17 17 17s17 -8 17 -17v-151l87 31v162
c0 9 8 17 17 17s17 -8 17 -17v-150l39 13c10 4 21 -4 21 -15v-64c0 -7 -5 -13 -11 -15l-49 -18v-164l39 14c10 4 21 -4 21 -15v-65c0 -7 -5 -13 -11 -15l-49 -17v-163zM94 67v-164l87 30v164z" fill="currentColor"/>
</g>
<g transform="translate(12.2566, 38.3417)">
<path transform="scale(0.0040, -0.0040)" d="M215 -316c0 -9 -8 -17 -17 -17s-17 8 -17 17v151l-87 -31v-162c0 -9 -8 -17 -17 -17s-17 8 -17 17v150l-39 -13c-10 -4 -21 4 -21 15v64c0 7 5 13 11 15l49 18v164l-39 -14c-10 -4 -21 4 -21 15v65c0 7 5 13 11 15l49 17v163c0 9 8 17 17 17s17 -8 17 -17v-151l87 31v162
c0 9 8 17 17 17s17 -8 17 -17v-150l39 13c10 4 21 -4 21 -15v-64c0 -7 -5 -13 -11 -15l-49 -18v-164l39 14c10 4 21 -4 21 -15v-65c0 -7 -5 -13 -11 -15l-49 -17v-163zM94 67v-164l87 30v164z" fill="currentColor"/>
</g>
<g transform="translate(13.3566, 36.3417)">
<path transform="scale(0.0040, -0.0040)" d="M215 -316c0 -9 -8 -17 -17 -17s-17 8 -17 17v151l-87 -31v-162c0 -9 -8 -17 -17 -17s-17 8 -17 17v150l-39 -13c-10 -4 -21 4 -21 15v64c0 7 5 13 11 15l49 18v164l-39 -14c-10 -4 -21 4 -21 15v65c0 7 5 13 11 15l49 17v163c0 9 8 17 17 17s17 -8 17 -17v-151l87 31v162
c0 9 8 17 17 17s17 -8 17 -17v-150l39 13c10 4 21 -4 21 -15v-64c0 -7 -5 -13 -11 -15l-49 -18v-164l39 14c10 4 21 -4 21 -15v-65c0 -7 -5 -13 -11 -15l-49 -17v-163zM94 67v-164l87 30v164z" fill="currentColor"/>
</g>
<g transform="translate(4.9117, 40.0595)">
<text font-family="serif" font-style="italic" font-size="1.3862" text-anchor="start" fill="currentColor">
<tspan>8</tspan>
</text>
</g>
<g transform="translate(4.3566, 35.8417)">
<path transform="scale(0.0040, -0.0040)" d="M556 -125c0 29 23 52 52 52s52 -23 52 -52s-23 -52 -52 -52s-52 23 -52 52zM556 125c0 29 23 52 52 52s52 -23 52 -52s-23 -52 -52 -52s-52 23 -52 52zM233 261c171 0 292 -86 292 -248c0 -263 -264 -415 -517 -521c-2 -2 -5 -3 -8 -3c-6 0 -11 5 -11 11c0 3 1 6 3 8
c203 118 415 265 415 494c0 121 -64 237 -174 237c-79 0 -138 -57 -164 -133c14 8 28 13 43 13c55 0 100 -45 100 -100c0 -58 -44 -107 -100 -107c-60 0 -112 48 -112 107c0 132 103 242 233 242z" fill="currentColor"/>
</g>
<g transform="translate(58.3116, 34.4040)">
<path transform="scale(0.0040, -0.0040)" d="M208 319c21 13 42 27 57 47c11 15 18 32 25 49c4 9 20 7 20 -7v-256h68c9 0 13 -7 13 -14s-4 -13 -13 -13h-68v-16c0 -45 26 -88 68 -88c7 0 10 -5 10 -10s-3 -11 -10 -11c-41 0 -82 13 -123 13s-82 -13 -123 -13c-7 0 -10 6 -10 11s3 10 10 10c42 0 68 43 68 88v16h-173
c-21 0 -29 13 -29 21c0 2 1 5 2 6c81 96 146 208 146 333c0 10 7 18 15 15c22 -7 44 -13 67 -13s45 6 67 13c12 4 21 -8 15 -15l-283 -333h173v147c0 8 2 16 8 20z" fill="currentColor"/>
</g>
<g transform="translate(58.7905, 36.8417)">
<path transform="scale(0.0040, -0.0040)" d="M142 -250h-134c-4 0 -8 4 -8 8v484c0 4 4 8 8 8h134c4 0 8 -4 8 -8v-484c0 -4 -4 -8 -8 -8z" fill="currentColor"/>
</g>
<g transform="translate(3.5360, 41.4667)">
<rect x="0.0000" y="-6.6627" width="0.1206" height="13.3254" ry="0.0377" fill="currentColor"/>
</g>
<g transform="translate(2.2860, 34.5790)">
<path transform="scale(0.0040, -0.0040)" d="M0 -56v91c0 12 10 21 22 21h43c164 0 281 136 377 272c10 14 32 -1 22 -15c-103 -145 -222 -369 -399 -369h-65z" fill="currentColor"/>
</g>
<g transform="translate(2.2860, 48.3544)">
<path transform="scale(0.0040, -0.0040)" d="M0 56h65c177 0 296 -224 399 -369c10 -14 -12 -29 -22 -15c-96 136 -213 272 -377 272h-43c-12 0 -22 9 -22 21v91z" fill="currentColor"/>
</g>
<g transform="translate(2.2860, 41.4667)">
<rect x="0.0000" y="-6.7077" width="0.4500" height="13.4154" ry="0.0000" fill="currentColor"/>
</g>
<g transform="translate(21.4776, 36.8417)">
<path transform="scale(0.0040, -0.0040)" d="M76 -250l116 327c-35 -12 -70 -23 -107 -23c-46 0 -87 34 -87 80c0 39 31 71 71 71c26 0 49 -16 57 -40c10 -28 6 -60 35 -60c17 0 58 54 65 70c5 11 20 10 24 0l-126 -425c-7 -6 -16 -9 -24 -9s-17 3 -24 9z" fill="currentColor"/>
</g>
<g transform="translate(17.7124, 34.8667)">
<path transform="scale(0.0040, -0.0040)" d="M0 0v-250h-14v250h14zM0 0c0 -198 207 -336 207 -534c0 -71 -16 -142 -42 -208c-4 -7 -10 -11 -17 -11c-12 0 -24 10 -21 25c26 62 41 127 41 194c0 104 -96 209 -168 284v250z" fill="currentColor"/>
</g>
<g transform="translate(17.6635, 36.8417)">
<rect x="-0.0490" y="-2.0000" width="0.0980" height="3.3033" ry="0.0250" fill="currentColor"/>
</g>
<g color="rgb(100.0000%, 100.0000%, 100.0000%)">
<g transform="translate(16.4066, 48.0917)">
<rect x="0.1003" y="-0.6295" width="1.0030" height="1.2590" ry="0.0000" fill="currentColor"/>
</g>
</g>
<g transform="translate(16.5069, 48.6999)">
<text font-family="serif" font-weight="bold" font-size="1.7463" text-anchor="start" fill="currentColor">
<tspan>6</tspan>
</text>
</g>
<g transform="translate(16.4066, 38.3417)">
<path transform="scale(0.0040, -0.0040)" d="M222 135c53 0 104 -27 104 -86c0 -71 -56 -120 -103 -148c-36 -22 -76 -36 -118 -36c-53 0 -105 27 -105 86c0 71 57 120 104 148c36 22 76 36 118 36z" fill="currentColor"/>
</g>
<g transform="translate(3.5566, 59.8417)">
<line stroke-linejoin="round" stroke-linecap="round" stroke-width="0.0754" stroke="currentColor" x1="0.0377" y1="0" x2="67.5376" y2="0"/>
</g>
<g transform="translate(3.5566, 58.8417)">
<line stroke-linejoin="round" stroke-linecap="round" stroke-width="0.0754" stroke="currentColor" x1="0.0377" y1="0" x2="67.5376" y2="0"/>
</g>
<g transform="translate(3.5566, 57.8417)">
<line stroke-linejoin="round" stroke-linecap="round" stroke-width="0.0754" stroke="currentColor" x1="0.0377" y1="0" x2="67.5376" y2="0"/>
</g>
<g transform="translate(3.5566, 56.8417)">
<line stroke-linejoin="round" stroke-linecap="round" stroke-width="0.0754" stroke="currentColor" x1="0.0377" y1="0" x2="67.5376" y2="0"/>
</g>
<g transform="translate(3.5566, 55.8417)">
<line stroke-linejoin="round" stroke-linecap="round" stroke-width="0.0754" stroke="currentColor" x1="0.0377" y1="0" x2="67.5376" y2="0"/>
</g>
<g transform="translate(43.4334, 54.0629)">
<rect x="0.0000" y="5.8164" width="0.1432" height="4.7123" ry="0.0000" fill="currentColor"/>
</g>
<g transform="translate(69.6277, 57.3417)">
<path transform="scale(0.0040, -0.0040)" d="M0 0c0 32 25 57 57 57s57 -25 57 -57s-25 -57 -57 -57s-57 25 -57 57z" fill="currentColor"/>
</g>
<g transform="translate(69.6277, 58.3417)">
<path transform="scale(0.0040, -0.0040)" d="M0 0c0 32 25 57 57 57s57 -25 57 -57s-25 -57 -57 -57s-57 25 -57 57z" fill="currentColor"/>
</g>
<g transform="translate(70.6797, 57.8417)">
<rect x="0.0000" y="-2.0000" width="0.4521" height="4.0377" ry="0.0000" fill="currentColor"/>
</g>
<g transform="translate(70.3105, 57.8417)">
<rect x="0.0000" y="-2.0000" width="0.1432" height="4.0377" ry="0.0000" fill="currentColor"/>
</g>
<g transform="translate(43.4334, 66.8417)">
<rect x="0.0000" y="-2.2877" width="0.1432" height="4.5377" ry="0.0000" fill="currentColor"/>
</g>
<g transform="translate(16.2348, 54.0629)">
<rect x="0.0000" y="5.8164" width="0.1432" height="4.7123" ry="0.0000" fill="currentColor"/>
</g>
<g transform="translate(15.5566, 54.0629)">
<rect x="0.0000" y="5.8164" width="0.4521" height="4.7123" ry="0.0000" fill="currentColor"/>
</g>
<g transform="translate(69.6277, 65.3417)">
<path transform="scale(0.0040, -0.0040)" d="M0 0c0 32 25 57 57 57s57 -25 57 -57s-25 -57 -57 -57s-57 25 -57 57z" fill="currentColor"/>
</g>
<g transform="translate(69.6277, 68.3417)">
<path transform="scale(0.0040, -0.0040)" d="M0 0c0 32 25 57 57 57s57 -25 57 -57s-25 -57 -57 -57s-57 25 -57 57z" fill="currentColor"/>
</g>
<g transform="translate(70.6797, 66.8417)">
<rect x="0.0000" y="-2.2877" width="0.4521" height="4.5377" ry="0.0000" fill="currentColor"/>
</g>
<g transform="translate(70.3105, 66.8417)">
<rect x="0.0000" y="-2.2877" width="0.1432" height="4.5377" ry="0.0000" fill="currentColor"/>
</g>
<g transform="translate(16.6041, 65.3417)">
<path transform="scale(0.0040, -0.0040)" d="M0 0c0 32 25 57 57 57s57 -25 57 -57s-25 -57 -57 -57s-57 25 -57 57z" fill="currentColor"/>
</g>
<g transform="translate(16.6041, 68.3417)">
<path transform="scale(0.0040, -0.0040)" d="M0 0c0 32 25 57 57 57s57 -25 57 -57s-25 -57 -57 -57s-57 25 -57 57z" fill="currentColor"/>
</g>
<g transform="translate(16.2348, 66.8417)">
<rect x="0.0000" y="-2.2877" width="0.1432" height="4.5377" ry="0.0000" fill="currentColor"/>
</g>
<g transform="translate(15.5566, 66.8417)">
<rect x="0.0000" y="-2.2877" width="0.4521" height="4.5377" ry="0.0000" fill="currentColor"/>
</g>
<g transform="translate(70.6797, 54.0629)">
<rect x="0.0000" y="5.8164" width="0.4521" height="4.7123" ry="0.0000" fill="currentColor"/>
</g>
<g transform="translate(70.3105, 54.0629)">
<rect x="0.0000" y="5.8164" width="0.1432" height="4.7123" ry="0.0000" fill="currentColor"/>
</g>
<g transform="translate(16.6041, 57.3417)">
<path transform="scale(0.0040, -0.0040)" d="M0 0c0 32 25 57 57 57s57 -25 57 -57s-25 -57 -57 -57s-57 25 -57 57z" fill="currentColor"/>
</g>
<g transform="translate(16.6041, 58.3417)">
<path transform="scale(0.0040, -0.0040)" d="M0 0c0 32 25 57 57 57s57 -25 57 -57s-25 -57 -57 -57s-57 25 -57 57z" fill="currentColor"/>
</g>
<g transform="translate(16.2348, 57.8417)">
<rect x="0.0000" y="-2.0000" width="0.1432" height="4.0377" ry="0.0000" fill="currentColor"/>
</g>
<g transform="translate(15.5566, 57.8417)">
<rect x="0.0000" y="-2.0000" width="0.4521" height="4.0377" ry="0.0000" fill="currentColor"/>
</g>
<g transform="translate(3.5566, 69.0917)">
<line stroke-linejoin="round" stroke-linecap="round" stroke-width="0.0754" stroke="currentColor" x1="0.0377" y1="0" x2="67.5376" y2="0"/>
</g>
<g transform="translate(3.5566, 67.5917)">
<line stroke-linejoin="round" stroke-linecap="round" stroke-width="0.0754" stroke="currentColor" x1="0.0377" y1="0" x2="67.5376" y2="0"/>
</g>
<g transform="translate(3.5566, 66.0917)">
<line stroke-linejoin="round" stroke-linecap="round" stroke-width="0.0754" stroke="currentColor" x1="0.0377" y1="0" x2="67.5376" y2="0"/>
</g>
<g transform="translate(3.5566, 64.5917)">
<line stroke-linejoin="round" stroke-linecap="round" stroke-width="0.0754" stroke="currentColor" x1="0.0377" y1="0" x2="67.5376" y2="0"/>
</g>
<g transform="translate(43.4334, 57.8417)">
<rect x="0.0000" y="-2.0000" width="0.1432" height="4.0377" ry="0.0000" fill="currentColor"/>
</g>
<g transform="translate(57.2440, 57.8417)">
<rect x="-0.0490" y="0.1967" width="0.0980" height="2.8033" ry="0.0250" fill="currentColor"/>
</g>
<g transform="translate(51.1037, 56.8417)">
<path transform="scale(0.0040, -0.0040)" d="M222 135c53 0 104 -27 104 -86c0 -71 -56 -120 -103 -148c-36 -22 -76 -36 -118 -36c-53 0 -105 27 -105 86c0 71 57 120 104 148c36 22 76 36 118 36z" fill="currentColor"/>
</g>
<g transform="translate(51.1527, 57.8417)">
<rect x="-0.0490" y="-0.8033" width="0.0980" height="2.8033" ry="0.0250" fill="currentColor"/>
</g>
<g color="rgb(100.0000%, 100.0000%, 100.0000%)">
<g transform="translate(51.1037, 67.5917)">
<rect x="0.1003" y="-0.6295" width="1.0030" height="1.2590" ry="0.0000" fill="currentColor"/>
</g>
</g>
<g transform="translate(51.2040, 68.1999)">
<text font-family="serif" font-weight="bold" font-size="1.7463" text-anchor="start" fill="currentColor">
<tspan>9</tspan>
</text>
</g>
<g transform="translate(54.2119, 56.8417)">
<path transform="scale(0.0040, -0.0040)" d="M222 135c53 0 104 -27 104 -86c0 -71 -56 -120 -103 -148c-36 -22 -76 -36 -118 -36c-53 0 -105 27 -105 86c0 71 57 120 104 148c36 22 76 36 118 36z" fill="currentColor"/>
</g>
<g color="rgb(100.0000%, 100.0000%, 100.0000%)">
<g transform="translate(54.2119, 67.5917)">
<rect x="0.1003" y="-0.6295" width="1.0030" height="1.2590" ry="0.0000" fill="currentColor"/>
</g>
</g>
<g transform="translate(54.3122, 68.1999)">
<text font-family="serif" font-weight="bold" font-size="1.7463" text-anchor="start" fill="currentColor">
<tspan>9</tspan>
</text>
</g>
<g transform="translate(54.2609, 57.8417)">
<rect x="-0.0490" y="-0.8033" width="0.0980" height="2.8033" ry="0.0250" fill="currentColor"/>
</g>
<g transform="translate(57.1950, 57.8417)">
<path transform="scale(0.0040, -0.0040)" d="M222 135c53 0 104 -27 104 -86c0 -71 -56 -120 -103 -148c-36 -22 -76 -36 -118 -36c-53 0 -105 27 -105 86c0 71 57 120 104 148c36 22 76 36 118 36z" fill="currentColor"/>
</g>
<g color="rgb(100.0000%, 100.0000%, 100.0000%)">
<g transform="translate(57.1950, 67.5917)">
<rect x="0.1003" y="-0.6295" width="1.0030" height="1.2590" ry="0.0000" fill="currentColor"/>
</g>
</g>
<g transform="translate(57.2953, 68.1999)">
<text font-family="serif" font-weight="bold" font-size="1.7463" text-anchor="start" fill="currentColor">
<tspan>6</tspan>
</text>
</g>
<g transform="translate(19.5687, 56.0440)">
<polygon stroke-linejoin="round" stroke-linecap="round" stroke-width="0.0500" fill="currentColor" stroke="currentColor" points="9.3974 -0.2150 9.3974 0.2150 0.0250 0.2150 0.0250 -0.2150"/>
</g>
<g transform="translate(47.9956, 56.8417)">
<path transform="scale(0.0040, -0.0040)" d="M222 135c53 0 104 -27 104 -86c0 -71 -56 -120 -103 -148c-36 -22 -76 -36 -118 -36c-53 0 -105 27 -105 86c0 71 57 120 104 148c36 22 76 36 118 36z" fill="currentColor"/>
</g>
<g color="rgb(100.0000%, 100.0000%, 100.0000%)">
<g transform="translate(47.9956, 67.5917)">
<rect x="0.1003" y="-0.6295" width="1.0030" height="1.2590" ry="0.0000" fill="currentColor"/>
</g>
</g>
<g transform="translate(48.0959, 68.1999)">
<text font-family="serif" font-weight="bold" font-size="1.7463" text-anchor="start" fill="currentColor">
<tspan>9</tspan>
</text>
</g>
<g transform="translate(48.0445, 57.8417)">
<rect x="-0.0490" y="-0.8033" width="0.0980" height="2.8033" ry="0.0250" fill="currentColor"/>
</g>
<g transform="translate(66.5195, 57.8417)">
<path transform="scale(0.0040, -0.0040)" d="M222 135c53 0 104 -27 104 -86c0 -71 -56 -120 -103 -148c-36 -22 -76 -36 -118 -36c-53 0 -105 27 -105 86c0 71 57 120 104 148c36 22 76 36 118 36z" fill="currentColor"/>
</g>
<g transform="translate(66.5195, 55.3040)">
<text font-family="serif" font-size="1.7463" text-anchor="start" fill="currentColor">
<tspan>9×</tspan>
</text>
</g>
<g color="rgb(100.0000%, 100.0000%, 100.0000%)">
<g transform="translate(66.5195, 67.5917)">
<rect x="0.1003" y="-0.6295" width="1.0030" height="1.2590" ry="0.0000" fill="currentColor"/>
</g>
</g>
<g transform="translate(66.6198, 68.1999)">
<text font-family="serif" font-weight="bold" font-size="1.7463" text-anchor="start" fill="currentColor">
<tspan>6</tspan>
</text>
</g>
<g transform="translate(66.5685, 57.8417)">
<rect x="-0.0490" y="0.1967" width="0.0980" height="2.8033" ry="0.0250" fill="currentColor"/>
</g>
<g transform="translate(57.1950, 60.8417)">
<polygon stroke-linejoin="round" stroke-linecap="round" stroke-width="0.0500" fill="currentColor" stroke="currentColor" points="9.3974 -0.2150 9.3974 0.2150 0.0250 0.2150 0.0250 -0.2150"/>
</g>
<g transform="translate(44.8874, 59.8417)">
<polygon stroke-linejoin="round" stroke-linecap="round" stroke-width="0.0500" fill="currentColor" stroke="currentColor" points="9.3974 -0.2150 9.3974 0.2150 0.0250 0.2150 0.0250 -0.2150"/>
</g>
<g transform="translate(32.1263, 55.0440)">
<polygon stroke-linejoin="round" stroke-linecap="round" stroke-width="0.0500" fill="currentColor" stroke="currentColor" points="9.3974 -0.2150 9.3974 0.2150 0.0250 0.2150 0.0250 -0.2150"/>
</g>
<g transform="translate(60.3032, 57.8417)">
<path transform="scale(0.0040, -0.0040)" d="M222 135c53 0 104 -27 104 -86c0 -71 -56 -120 -103 -148c-36 -22 -76 -36 -118 -36c-53 0 -105 27 -105 86c0 71 57 120 104 148c36 22 76 36 118 36z" fill="currentColor"/>
</g>
<g color="rgb(100.0000%, 100.0000%, 100.0000%)">
<g transform="translate(60.3032, 67.5917)">
<rect x="0.1003" y="-0.6295" width="1.0030" height="1.2590" ry="0.0000" fill="currentColor"/>
</g>
</g>
<g transform="translate(60.4035, 68.1999)">
<text font-family="serif" font-weight="bold" font-size="1.7463" text-anchor="start" fill="currentColor">
<tspan>6</tspan>
</text>
</g>
<g transform="translate(60.3522, 57.8417)">
<rect x="-0.0490" y="0.1967" width="0.0980" height="2.8033" ry="0.0250" fill="currentColor"/>
</g>
<g transform="translate(63.4113, 57.8417)">
<path transform="scale(0.0040, -0.0040)" d="M222 135c53 0 104 -27 104 -86c0 -71 -56 -120 -103 -148c-36 -22 -76 -36 -118 -36c-53 0 -105 27 -105 86c0 71 57 120 104 148c36 22 76 36 118 36z" fill="currentColor"/>
</g>
<g color="rgb(100.0000%, 100.0000%, 100.0000%)">
<g transform="translate(63.4113, 67.5917)">
<rect x="0.1003" y="-0.6295" width="1.0030" height="1.2590" ry="0.0000" fill="currentColor"/>
</g>
</g>
<g transform="translate(63.5116, 68.1999)">
<text font-family="serif" font-weight="bold" font-size="1.7463" text-anchor="start" fill="currentColor">
<tspan>6</tspan>
</text>
</g>
<g transform="translate(63.4603, 57.8417)">
<rect x="-0.0490" y="0.1967" width="0.0980" height="2.8033" ry="0.0250" fill="currentColor"/>
</g>
<g transform="translate(25.8340, 57.8417)">
<rect x="-0.0490" y="-1.7977" width="0.0980" height="3.1009" ry="0.0250" fill="currentColor"/>
</g>
<g color="rgb(100.0000%, 100.0000%, 100.0000%)">
<g transform="translate(24.5772, 69.0917)">
<rect x="0.1003" y="-0.6295" width="1.0030" height="1.2590" ry="0.0000" fill="currentColor"/>
</g>
</g>
<g transform="translate(24.6775, 69.6999)">
<text font-family="serif" font-weight="bold" font-size="1.7463" text-anchor="start" fill="currentColor">
<tspan>6</tspan>
</text>
</g>
<g transform="translate(24.5772, 59.3417)">
<path transform="scale(0.0040, -0.0040)" d="M222 135c53 0 104 -27 104 -86c0 -71 -56 -120 -103 -148c-36 -22 -76 -36 -118 -36c-53 0 -105 27 -105 86c0 71 57 120 104 148c36 22 76 36 118 36z" fill="currentColor"/>
</g>
<g transform="translate(22.7259, 57.8417)">
<rect x="-0.0490" y="-1.7977" width="0.0980" height="3.1009" ry="0.0250" fill="currentColor"/>
</g>
<g color="rgb(100.0000%, 100.0000%, 100.0000%)">
<g transform="translate(21.4690, 69.0917)">
<rect x="0.1003" y="-0.6295" width="1.0030" height="1.2590" ry="0.0000" fill="currentColor"/>
</g>
</g>
<g transform="translate(21.5693, 69.6999)">
<text font-family="serif" font-weight="bold" font-size="1.7463" text-anchor="start" fill="currentColor">
<tspan>6</tspan>
</text>
</g>
<g transform="translate(21.4690, 59.3417)">
<path transform="scale(0.0040, -0.0040)" d="M222 135c53 0 104 -27 104 -86c0 -71 -56 -120 -103 -148c-36 -22 -76 -36 -118 -36c-53 0 -105 27 -105 86c0 71 57 120 104 148c36 22 76 36 118 36z" fill="currentColor"/>
</g>
<g transform="translate(27.6853, 59.3417)">
<path transform="scale(0.0040, -0.0040)" d="M222 135c53 0 104 -27 104 -86c0 -71 -56 -120 -103 -148c-36 -22 -76 -36 -118 -36c-53 0 -105 27 -105 86c0 71 57 120 104 148c36 22 76 36 118 36z" fill="currentColor"/>
</g>
<g color="rgb(100.0000%, 100.0000%, 100.0000%)">
<g transform="translate(27.6853, 69.0917)">
<rect x="0.1003" y="-0.6295" width="1.0030" height="1.2590" ry="0.0000" fill="currentColor"/>
</g>
</g>
<g transform="translate(27.7856, 69.6999)">
<text font-family="serif" font-weight="bold" font-size="1.7463" text-anchor="start" fill="currentColor">
<tspan>6</tspan>
</text>
</g>
<g transform="translate(28.9422, 57.8417)">
<rect x="-0.0490" y="-1.7977" width="0.0980" height="3.1009" ry="0.0250" fill="currentColor"/>
</g>
<g transform="translate(44.9364, 57.8417)">
<rect x="-0.0490" y="-0.8033" width="0.0980" height="2.8033" ry="0.0250" fill="currentColor"/>
</g>
<g transform="translate(2.2860, 55.5790)">
<path transform="scale(0.0040, -0.0040)" d="M0 -56v91c0 12 10 21 22 21h43c164 0 281 136 377 272c10 14 32 -1 22 -15c-103 -145 -222 -369 -399 -369h-65z" fill="currentColor"/>
</g>
<g transform="translate(2.2860, 69.3544)">
<path transform="scale(0.0040, -0.0040)" d="M0 56h65c177 0 296 -224 399 -369c10 -14 -12 -29 -22 -15c-96 136 -213 272 -377 272h-43c-12 0 -22 9 -22 21v91z" fill="currentColor"/>
</g>
<g transform="translate(2.2860, 62.4667)">
<rect x="0.0000" y="-6.7077" width="0.4500" height="13.4154" ry="0.0000" fill="currentColor"/>
</g>
<g transform="translate(3.5360, 62.4667)">
<rect x="0.0000" y="-6.6627" width="0.1206" height="13.3254" ry="0.0377" fill="currentColor"/>
</g>
<g transform="translate(4.3566, 56.8417)">
<path transform="scale(0.0040, -0.0040)" d="M556 -125c0 29 23 52 52 52s52 -23 52 -52s-23 -52 -52 -52s-52 23 -52 52zM556 125c0 29 23 52 52 52s52 -23 52 -52s-23 -52 -52 -52s-52 23 -52 52zM233 261c171 0 292 -86 292 -248c0 -263 -264 -415 -517 -521c-2 -2 -5 -3 -8 -3c-6 0 -11 5 -11 11c0 3 1 6 3 8
c203 118 415 265 415 494c0 121 -64 237 -174 237c-79 0 -138 -57 -164 -133c14 8 28 13 43 13c55 0 100 -45 100 -100c0 -58 -44 -107 -100 -107c-60 0 -112 48 -112 107c0 132 103 242 233 242z" fill="currentColor"/>
</g>
<g transform="translate(4.9117, 61.0595)">
<text font-family="serif" font-style="italic" font-size="1.3862" text-anchor="start" fill="currentColor">
<tspan>8</tspan>
</text>
</g>
<g transform="translate(7.8566, 56.8417)">
<path transform="scale(0.0040, -0.0040)" d="M215 -316c0 -9 -8 -17 -17 -17s-17 8 -17 17v151l-87 -31v-162c0 -9 -8 -17 -17 -17s-17 8 -17 17v150l-39 -13c-10 -4 -21 4 -21 15v64c0 7 5 13 11 15l49 18v164l-39 -14c-10 -4 -21 4 -21 15v65c0 7 5 13 11 15l49 17v163c0 9 8 17 17 17s17 -8 17 -17v-151l87 31v162
c0 9 8 17 17 17s17 -8 17 -17v-150l39 13c10 4 21 -4 21 -15v-64c0 -7 -5 -13 -11 -15l-49 -18v-164l39 14c10 4 21 -4 21 -15v-65c0 -7 -5 -13 -11 -15l-49 -17v-163zM94 67v-164l87 30v164z" fill="currentColor"/>
</g>
<g transform="translate(8.9566, 58.3417)">
<path transform="scale(0.0040, -0.0040)" d="M215 -316c0 -9 -8 -17 -17 -17s-17 8 -17 17v151l-87 -31v-162c0 -9 -8 -17 -17 -17s-17 8 -17 17v150l-39 -13c-10 -4 -21 4 -21 15v64c0 7 5 13 11 15l49 18v164l-39 -14c-10 -4 -21 4 -21 15v65c0 7 5 13 11 15l49 17v163c0 9 8 17 17 17s17 -8 17 -17v-151l87 31v162
c0 9 8 17 17 17s17 -8 17 -17v-150l39 13c10 4 21 -4 21 -15v-64c0 -7 -5 -13 -11 -15l-49 -18v-164l39 14c10 4 21 -4 21 -15v-65c0 -7 -5 -13 -11 -15l-49 -17v-163zM94 67v-164l87 30v164z" fill="currentColor"/>
</g>
<g transform="translate(10.0566, 56.3417)">
<path transform="scale(0.0040, -0.0040)" d="M215 -316c0 -9 -8 -17 -17 -17s-17 8 -17 17v151l-87 -31v-162c0 -9 -8 -17 -17 -17s-17 8 -17 17v150l-39 -13c-10 -4 -21 4 -21 15v64c0 7 5 13 11 15l49 18v164l-39 -14c-10 -4 -21 4 -21 15v65c0 7 5 13 11 15l49 17v163c0 9 8 17 17 17s17 -8 17 -17v-151l87 31v162
c0 9 8 17 17 17s17 -8 17 -17v-150l39 13c10 4 21 -4 21 -15v-64c0 -7 -5 -13 -11 -15l-49 -18v-164l39 14c10 4 21 -4 21 -15v-65c0 -7 -5 -13 -11 -15l-49 -17v-163zM94 67v-164l87 30v164z" fill="currentColor"/>
</g>
<g transform="translate(11.1566, 57.8417)">
<path transform="scale(0.0040, -0.0040)" d="M215 -316c0 -9 -8 -17 -17 -17s-17 8 -17 17v151l-87 -31v-162c0 -9 -8 -17 -17 -17s-17 8 -17 17v150l-39 -13c-10 -4 -21 4 -21 15v64c0 7 5 13 11 15l49 18v164l-39 -14c-10 -4 -21 4 -21 15v65c0 7 5 13 11 15l49 17v163c0 9 8 17 17 17s17 -8 17 -17v-151l87 31v162
c0 9 8 17 17 17s17 -8 17 -17v-150l39 13c10 4 21 -4 21 -15v-64c0 -7 -5 -13 -11 -15l-49 -18v-164l39 14c10 4 21 -4 21 -15v-65c0 -7 -5 -13 -11 -15l-49 -17v-163zM94 67v-164l87 30v164z" fill="currentColor"/>
</g>
<g transform="translate(12.2566, 59.3417)">
<path transform="scale(0.0040, -0.0040)" d="M215 -316c0 -9 -8 -17 -17 -17s-17 8 -17 17v151l-87 -31v-162c0 -9 -8 -17 -17 -17s-17 8 -17 17v150l-39 -13c-10 -4 -21 4 -21 15v64c0 7 5 13 11 15l49 18v164l-39 -14c-10 -4 -21 4 -21 15v65c0 7 5 13 11 15l49 17v163c0 9 8 17 17 17s17 -8 17 -17v-151l87 31v162
c0 9 8 17 17 17s17 -8 17 -17v-150l39 13c10 4 21 -4 21 -15v-64c0 -7 -5 -13 -11 -15l-49 -18v-164l39 14c10 4 21 -4 21 -15v-65c0 -7 -5 -13 -11 -15l-49 -17v-163zM94 67v-164l87 30v164z" fill="currentColor"/>
</g>
<g transform="translate(13.3566, 57.3417)">
<path transform="scale(0.0040, -0.0040)" d="M215 -316c0 -9 -8 -17 -17 -17s-17 8 -17 17v151l-87 -31v-162c0 -9 -8 -17 -17 -17s-17 8 -17 17v150l-39 -13c-10 -4 -21 4 -21 15v64c0 7 5 13 11 15l49 18v164l-39 -14c-10 -4 -21 4 -21 15v65c0 7 5 13 11 15l49 17v163c0 9 8 17 17 17s17 -8 17 -17v-151l87 31v162
c0 9 8 17 17 17s17 -8 17 -17v-150l39 13c10 4 21 -4 21 -15v-64c0 -7 -5 -13 -11 -15l-49 -18v-164l39 14c10 4 21 -4 21 -15v-65c0 -7 -5 -13 -11 -15l-49 -17v-163zM94 67v-164l87 30v164z" fill="currentColor"/>
</g>
<g transform="translate(4.4633, 66.1268)">
<text font-family="sans-serif" font-weight="bold" font-size="1.9599" text-anchor="start" fill="currentColor">
<tspan>T</tspan>
</text>
</g>
<g transform="translate(4.3566, 67.5566)">
<text font-family="sans-serif" font-weight="bold" font-size="1.9599" text-anchor="start" fill="currentColor">
<tspan>A</tspan>
</text>
</g>
<g transform="translate(4.3566, 68.9863)">
<text font-family="sans-serif" font-weight="bold" font-size="1.9599" text-anchor="start" fill="currentColor">
<tspan>B</tspan>
</text>
</g>
<g transform="translate(18.3609, 59.3417)">
<path transform="scale(0.0040, -0.0040)" d="M222 135c53 0 104 -27 104 -86c0 -71 -56 -120 -103 -148c-36 -22 -76 -36 -118 -36c-53 0 -105 27 -105 86c0 71 57 120 104 148c36 22 76 36 118 36z" fill="currentColor"/>
</g>
<g color="rgb(100.0000%, 100.0000%, 100.0000%)">
<g transform="translate(18.3609, 69.0917)">
<rect x="0.1003" y="-0.6295" width="1.0030" height="1.2590" ry="0.0000" fill="currentColor"/>
</g>
</g>
<g transform="translate(18.4612, 69.6999)">
<text font-family="serif" font-weight="bold" font-size="1.7463" text-anchor="start" fill="currentColor">
<tspan>6</tspan>
</text>
</g>
<g transform="translate(19.6177, 57.8417)">
<rect x="-0.0490" y="-1.7977" width="0.0980" height="3.1009" ry="0.0250" fill="currentColor"/>
</g>
<g transform="translate(37.1348, 58.3417)">
<path transform="scale(0.0040, -0.0040)" d="M222 135c53 0 104 -27 104 -86c0 -71 -56 -120 -103 -148c-36 -22 -76 -36 -118 -36c-53 0 -105 27 -105 86c0 71 57 120 104 148c36 22 76 36 118 36z" fill="currentColor"/>
</g>
<g color="rgb(100.0000%, 100.0000%, 100.0000%)">
<g transform="translate(37.1348, 69.0917)">
<rect x="0.1003" y="-0.6295" width="1.0030" height="1.2590" ry="0.0000" fill="currentColor"/>
</g>
</g>
<g transform="translate(37.2351, 69.6999)">
<text font-family="serif" font-weight="bold" font-size="1.7463" text-anchor="start" fill="currentColor">
<tspan>9</tspan>
</text>
</g>
<g transform="translate(38.3916, 57.8417)">
<rect x="-0.0490" y="-2.7977" width="0.0980" height="3.1009" ry="0.0250" fill="currentColor"/>
</g>
<g transform="translate(40.2430, 58.3417)">
<path transform="scale(0.0040, -0.0040)" d="M222 135c53 0 104 -27 104 -86c0 -71 -56 -120 -103 -148c-36 -22 -76 -36 -118 -36c-53 0 -105 27 -105 86c0 71 57 120 104 148c36 22 76 36 118 36z" fill="currentColor"/>
</g>
<g color="rgb(100.0000%, 100.0000%, 100.0000%)">
<g transform="translate(40.2430, 69.0917)">
<rect x="0.1003" y="-0.6295" width="1.0030" height="1.2590" ry="0.0000" fill="currentColor"/>
</g>
</g>
<g transform="translate(40.3433, 69.6999)">
<text font-family="serif" font-weight="bold" font-size="1.7463" text-anchor="start" fill="currentColor">
<tspan>9</tspan>
</text>
</g>
<g transform="translate(41.4998, 57.8417)">
<rect x="-0.0490" y="-2.7977" width="0.0980" height="3.1009" ry="0.0250" fill="currentColor"/>
</g>
<g color="rgb(100.0000%, 100.0000%, 100.0000%)">
<g transform="translate(44.8874, 67.5917)">
<rect x="0.1003" y="-0.6295" width="1.0030" height="1.2590" ry="0.0000" fill="currentColor"/>
</g>
</g>
<g transform="translate(44.9877, 68.1999)">
<text font-family="serif" font-weight="bold" font-size="1.7463" text-anchor="start" fill="currentColor">
<tspan>9</tspan>
</text>
</g>
<g transform="translate(30.9185, 58.3417)">
<path transform="scale(0.0040, -0.0040)" d="M222 135c53 0 104 -27 104 -86c0 -71 -56 -120 -103 -148c-36 -22 -76 -36 -118 -36c-53 0 -105 27 -105 86c0 71 57 120 104 148c36 22 76 36 118 36z" fill="currentColor"/>
</g>
<g color="rgb(100.0000%, 100.0000%, 100.0000%)">
<g transform="translate(30.9185, 69.0917)">
<rect x="0.1003" y="-0.6295" width="1.0030" height="1.2590" ry="0.0000" fill="currentColor"/>
</g>
</g>
<g transform="translate(31.0188, 69.6999)">
<text font-family="serif" font-weight="bold" font-size="1.7463" text-anchor="start" fill="currentColor">
<tspan>9</tspan>
</text>
</g>
<g transform="translate(32.1753, 57.8417)">
<rect x="-0.0490" y="-2.7977" width="0.0980" height="3.1009" ry="0.0250" fill="currentColor"/>
</g>
<g transform="translate(44.8874, 56.8417)">
<path transform="scale(0.0040, -0.0040)" d="M222 135c53 0 104 -27 104 -86c0 -71 -56 -120 -103 -148c-36 -22 -76 -36 -118 -36c-53 0 -105 27 -105 86c0 71 57 120 104 148c36 22 76 36 118 36z" fill="currentColor"/>
</g>
<g transform="translate(34.0267, 58.3417)">
<path transform="scale(0.0040, -0.0040)" d="M222 135c53 0 104 -27 104 -86c0 -71 -56 -120 -103 -148c-36 -22 -76 -36 -118 -36c-53 0 -105 27 -105 86c0 71 57 120 104 148c36 22 76 36 118 36z" fill="currentColor"/>
</g>
<g color="rgb(100.0000%, 100.0000%, 100.0000%)">
<g transform="translate(34.0267, 69.0917)">
<rect x="0.1003" y="-0.6295" width="1.0030" height="1.2590" ry="0.0000" fill="currentColor"/>
</g>
</g>
<g transform="translate(34.1269, 69.6999)">
<text font-family="serif" font-weight="bold" font-size="1.7463" text-anchor="start" fill="currentColor">
<tspan>9</tspan>
</text>
</g>
<g transform="translate(35.2835, 57.8417)">
<rect x="-0.0490" y="-2.7977" width="0.0980" height="3.1009" ry="0.0250" fill="currentColor"/>
</g>
<g transform="translate(70.9887, 75.8417)">
<rect x="0.0000" y="5.0377" width="0.1432" height="4.7123" ry="0.0000" fill="currentColor"/>
</g>
<g transform="translate(36.8716, 78.8417)">
<rect x="0.0000" y="-2.0000" width="0.1432" height="4.0377" ry="0.0000" fill="currentColor"/>
</g>
<g transform="translate(58.5303, 78.8417)">
<rect x="0.0000" y="-2.0000" width="0.1432" height="4.0377" ry="0.0000" fill="currentColor"/>
</g>
<g transform="translate(70.9887, 78.8417)">
<rect x="0.0000" y="-2.0000" width="0.1432" height="4.0377" ry="0.0000" fill="currentColor"/>
</g>
<g transform="translate(36.8716, 87.8417)">
<rect x="0.0000" y="-2.2877" width="0.1432" height="4.5377" ry="0.0000" fill="currentColor"/>
</g>
<g transform="translate(70.9887, 87.8417)">
<rect x="0.0000" y="-2.2877" width="0.1432" height="4.5377" ry="0.0000" fill="currentColor"/>
</g>
<g transform="translate(58.5303, 87.8417)">
<rect x="0.0000" y="-2.2877" width="0.1432" height="4.5377" ry="0.0000" fill="currentColor"/>
</g>
<g transform="translate(36.8716, 75.8417)">
<rect x="0.0000" y="5.0377" width="0.1432" height="4.7123" ry="0.0000" fill="currentColor"/>
</g>
<g transform="translate(58.5303, 75.8417)">
<rect x="0.0000" y="5.0377" width="0.1432" height="4.7123" ry="0.0000" fill="currentColor"/>
</g>
<g transform="translate(3.5566, 90.0917)">
<line stroke-linejoin="round" stroke-linecap="round" stroke-width="0.0754" stroke="currentColor" x1="0.0377" y1="0" x2="67.5376" y2="0"/>
</g>
<g transform="translate(3.5566, 88.5917)">
<line stroke-linejoin="round" stroke-linecap="round" stroke-width="0.0754" stroke="currentColor" x1="0.0377" y1="0" x2="67.5376" y2="0"/>
</g>
<g transform="translate(3.5566, 87.0917)">
<line stroke-linejoin="round" stroke-linecap="round" stroke-width="0.0754" stroke="currentColor" x1="0.0377" y1="0" x2="67.5376" y2="0"/>
</g>
<g transform="translate(3.5566, 85.5917)">
<line stroke-linejoin="round" stroke-linecap="round" stroke-width="0.0754" stroke="currentColor" x1="0.0377" y1="0" x2="67.5376" y2="0"/>
</g>
<g transform="translate(3.5566, 80.8417)">
<line stroke-linejoin="round" stroke-linecap="round" stroke-width="0.0754" stroke="currentColor" x1="0.0377" y1="0" x2="67.5376" y2="0"/>
</g>
<g transform="translate(3.5566, 79.8417)">
<line stroke-linejoin="round" stroke-linecap="round" stroke-width="0.0754" stroke="currentColor" x1="0.0377" y1="0" x2="67.5376" y2="0"/>
</g>
<g transform="translate(3.5566, 78.8417)">
<line stroke-linejoin="round" stroke-linecap="round" stroke-width="0.0754" stroke="currentColor" x1="0.0377" y1="0" x2="67.5376" y2="0"/>
</g>
<g transform="translate(3.5566, 77.8417)">
<line stroke-linejoin="round" stroke-linecap="round" stroke-width="0.0754" stroke="currentColor" x1="0.0377" y1="0" x2="67.5376" y2="0"/>
</g>
<g transform="translate(3.5566, 76.8417)">
<line stroke-linejoin="round" stroke-linecap="round" stroke-width="0.0754" stroke="currentColor" x1="0.0377" y1="0" x2="67.5376" y2="0"/>
</g>
<g transform="translate(50.8970, 78.8417)">
<path transform="scale(0.0040, -0.0040)" d="M222 135c53 0 104 -27 104 -86c0 -71 -56 -120 -103 -148c-36 -22 -76 -36 -118 -36c-53 0 -105 27 -105 86c0 71 57 120 104 148c36 22 76 36 118 36z" fill="currentColor"/>
</g>
<g color="rgb(100.0000%, 100.0000%, 100.0000%)">
<g transform="translate(50.8970, 88.5917)">
<rect x="0.1003" y="-0.6295" width="1.0030" height="1.2590" ry="0.0000" fill="currentColor"/>
</g>
</g>
<g transform="translate(50.9973, 89.1999)">
<text font-family="serif" font-weight="bold" font-size="1.7463" text-anchor="start" fill="currentColor">
<tspan>6</tspan>
</text>
</g>
<g transform="translate(50.9460, 78.8417)">
<rect x="-0.0490" y="0.1967" width="0.0980" height="2.8033" ry="0.0250" fill="currentColor"/>
</g>
<g transform="translate(56.0787, 78.8417)">
<rect x="-0.0490" y="0.1967" width="0.0980" height="2.8033" ry="0.0250" fill="currentColor"/>
</g>
<g color="rgb(100.0000%, 100.0000%, 100.0000%)">
<g transform="translate(56.0297, 88.5917)">
<rect x="0.1003" y="-0.6295" width="1.0030" height="1.2590" ry="0.0000" fill="currentColor"/>
</g>
</g>
<g transform="translate(56.1300, 89.1999)">
<text font-family="serif" font-weight="bold" font-size="1.7463" text-anchor="start" fill="currentColor">
<tspan>6</tspan>
</text>
</g>
<g transform="translate(56.0297, 78.8417)">
<path transform="scale(0.0040, -0.0040)" d="M222 135c53 0 104 -27 104 -86c0 -71 -56 -120 -103 -148c-36 -22 -76 -36 -118 -36c-53 0 -105 27 -105 86c0 71 57 120 104 148c36 22 76 36 118 36z" fill="currentColor"/>
</g>
<g transform="translate(53.5123, 78.8417)">
<rect x="-0.0490" y="0.1967" width="0.0980" height="2.8033" ry="0.0250" fill="currentColor"/>
</g>
<g color="rgb(100.0000%, 100.0000%, 100.0000%)">
<g transform="translate(53.4633, 88.5917)">
<rect x="0.1003" y="-0.6295" width="1.0030" height="1.2590" ry="0.0000" fill="currentColor"/>
</g>
</g>
<g transform="translate(53.5636, 89.1999)">
<text font-family="serif" font-weight="bold" font-size="1.7463" text-anchor="start" fill="currentColor">
<tspan>6</tspan>
</text>
</g>
<g transform="translate(53.4633, 78.8417)">
<path transform="scale(0.0040, -0.0040)" d="M222 135c53 0 104 -27 104 -86c0 -71 -56 -120 -103 -148c-36 -22 -76 -36 -118 -36c-53 0 -105 27 -105 86c0 71 57 120 104 148c36 22 76 36 118 36z" fill="currentColor"/>
</g>
<g transform="translate(43.1980, 78.8417)">
<path transform="scale(0.0040, -0.0040)" d="M222 135c53 0 104 -27 104 -86c0 -71 -56 -120 -103 -148c-36 -22 -76 -36 -118 -36c-53 0 -105 27 -105 86c0 71 57 120 104 148c36 22 76 36 118 36z" fill="currentColor"/>
</g>
<g transform="translate(43.2470, 78.8417)">
<rect x="-0.0490" y="0.1967" width="0.0980" height="2.8033" ry="0.0250" fill="currentColor"/>
</g>
<g color="rgb(100.0000%, 100.0000%, 100.0000%)">
<g transform="translate(43.1980, 88.5917)">
<rect x="0.1003" y="-0.6295" width="1.0030" height="1.2590" ry="0.0000" fill="currentColor"/>
</g>
</g>
<g transform="translate(43.2983, 89.1999)">
<text font-family="serif" font-weight="bold" font-size="1.7463" text-anchor="start" fill="currentColor">
<tspan>6</tspan>
</text>
</g>
<g transform="translate(16.4066, 81.8417)">
<polygon stroke-linejoin="round" stroke-linecap="round" stroke-width="0.0500" fill="currentColor" stroke="currentColor" points="7.7720 -0.2150 7.7720 0.2150 0.0250 0.2150 0.0250 -0.2150"/>
</g>
<g transform="translate(48.3796, 78.8417)">
<rect x="-0.0490" y="0.1967" width="0.0980" height="2.8033" ry="0.0250" fill="currentColor"/>
</g>
<g color="rgb(100.0000%, 100.0000%, 100.0000%)">
<g transform="translate(48.3307, 88.5917)">
<rect x="0.1003" y="-0.6295" width="1.0030" height="1.2590" ry="0.0000" fill="currentColor"/>
</g>
</g>
<g transform="translate(48.4310, 89.1999)">
<text font-family="serif" font-weight="bold" font-size="1.7463" text-anchor="start" fill="currentColor">
<tspan>6</tspan>
</text>
</g>
<g transform="translate(48.3307, 78.8417)">
<path transform="scale(0.0040, -0.0040)" d="M222 135c53 0 104 -27 104 -86c0 -71 -56 -120 -103 -148c-36 -22 -76 -36 -118 -36c-53 0 -105 27 -105 86c0 71 57 120 104 148c36 22 76 36 118 36z" fill="currentColor"/>
</g>
<g transform="translate(45.8133, 78.8417)">
<rect x="-0.0490" y="0.1967" width="0.0980" height="2.8033" ry="0.0250" fill="currentColor"/>
</g>
<g color="rgb(100.0000%, 100.0000%, 100.0000%)">
<g transform="translate(45.7643, 88.5917)">
<rect x="0.1003" y="-0.6295" width="1.0030" height="1.2590" ry="0.0000" fill="currentColor"/>
</g>
</g>
<g transform="translate(45.8646, 89.1999)">
<text font-family="serif" font-weight="bold" font-size="1.7463" text-anchor="start" fill="currentColor">
<tspan>6</tspan>
</text>
</g>
<g transform="translate(45.7643, 78.8417)">
<path transform="scale(0.0040, -0.0040)" d="M222 135c53 0 104 -27 104 -86c0 -71 -56 -120 -103 -148c-36 -22 -76 -36 -118 -36c-53 0 -105 27 -105 86c0 71 57 120 104 148c36 22 76 36 118 36z" fill="currentColor"/>
</g>
<g transform="translate(66.5622, 80.3417)">
<path transform="scale(0.0040, -0.0040)" d="M0 0c0 32 25 57 57 57s57 -25 57 -57s-25 -57 -57 -57s-57 25 -57 57z" fill="currentColor"/>
</g>
<g transform="translate(66.0564, 78.8417)">
<rect x="-0.0490" y="-2.0000" width="0.0980" height="3.2316" ry="0.0250" fill="currentColor"/>
</g>
<g color="rgb(100.0000%, 100.0000%, 100.0000%)">
<g transform="translate(64.7334, 90.0917)">
<rect x="0.1003" y="-0.6295" width="1.0030" height="1.2590" ry="0.0000" fill="currentColor"/>
</g>
</g>
<g transform="translate(64.8337, 90.6999)">
<text font-family="serif" font-weight="bold" font-size="1.7463" text-anchor="start" fill="currentColor">
<tspan>6</tspan>
</text>
</g>
<g transform="translate(64.7334, 80.3417)">
<path transform="scale(0.0040, -0.0040)" d="M316 67c0 25 -20 42 -42 42c-4 0 -9 -1 -13 -2c-31 -9 -79 -41 -117 -65s-86 -55 -107 -80c-7 -8 -10 -19 -10 -29c0 -25 20 -42 42 -42c4 0 9 1 13 2c31 9 79 41 117 65s86 55 107 80c7 8 10 19 10 29zM265 135c44 0 78 -21 78 -68c0 -19 -5 -39 -11 -57
c-12 -37 -33 -71 -65 -93c-53 -36 -114 -52 -189 -52c-44 0 -78 21 -78 68c0 19 5 39 11 57c12 37 33 71 65 93c53 36 114 52 189 52z" fill="currentColor"/>
</g>
<g transform="translate(26.6720, 81.8417)">
<polygon stroke-linejoin="round" stroke-linecap="round" stroke-width="0.0500" fill="currentColor" stroke="currentColor" points="7.7720 -0.2150 7.7720 0.2150 0.0250 0.2150 0.0250 -0.2150"/>
</g>
<g transform="translate(38.0653, 81.8417)">
<polygon stroke-linejoin="round" stroke-linecap="round" stroke-width="0.0500" fill="currentColor" stroke="currentColor" points="7.7720 -0.2150 7.7720 0.2150 0.0250 0.2150 0.0250 -0.2150"/>
</g>
<g transform="translate(48.3307, 81.8417)">
<polygon stroke-linejoin="round" stroke-linecap="round" stroke-width="0.0500" fill="currentColor" stroke="currentColor" points="7.7720 -0.2150 7.7720 0.2150 0.0250 0.2150 0.0250 -0.2150"/>
</g>
<g transform="translate(60.8420, 77.0440)">
<polygon stroke-linejoin="round" stroke-linecap="round" stroke-width="0.0500" fill="currentColor" stroke="currentColor" points="2.6393 -0.2150 2.6393 0.2150 0.0250 0.2150 0.0250 -0.2150"/>
</g>
<g transform="translate(60.8909, 78.8417)">
<rect x="-0.0490" y="-1.7977" width="0.0980" height="3.1009" ry="0.0250" fill="currentColor"/>
</g>
<g color="rgb(100.0000%, 100.0000%, 100.0000%)">
<g transform="translate(59.6341, 90.0917)">
<rect x="0.1003" y="-0.6295" width="1.0030" height="1.2590" ry="0.0000" fill="currentColor"/>
</g>
</g>
<g transform="translate(59.7344, 90.6999)">
<text font-family="serif" font-weight="bold" font-size="1.7463" text-anchor="start" fill="currentColor">
<tspan>6</tspan>
</text>
</g>
<g transform="translate(60.2870, 81.5754)">
<path transform="scale(0.0040, -0.0040)" d="M-212 91c-8 2 -13 9 -13 17c0 10 10 19 21 16l412 -107c12 0 17 -5 17 -17s-5 -17 -17 -17l-412 -107c-11 -3 -21 6 -21 16c0 8 5 15 13 17l256 66l140 25l-140 25z" fill="currentColor"/>
</g>
<g transform="translate(59.6341, 80.3417)">
<path transform="scale(0.0040, -0.0040)" d="M222 135c53 0 104 -27 104 -86c0 -71 -56 -120 -103 -148c-36 -22 -76 -36 -118 -36c-53 0 -105 27 -105 86c0 71 57 120 104 148c36 22 76 36 118 36z" fill="currentColor"/>
</g>
<g transform="translate(63.4573, 78.8417)">
<rect x="-0.0490" y="-1.7977" width="0.0980" height="2.8663" ry="0.0250" fill="currentColor"/>
</g>
<g color="rgb(100.0000%, 100.0000%, 100.0000%)">
<g transform="translate(62.2005, 90.0917)">
<rect x="-0.0000" y="-0.4277" width="1.0364" height="0.8555" ry="0.0000" fill="currentColor"/>
</g>
</g>
<g color="rgb(100.0000%, 100.0000%, 100.0000%)">
<g transform="translate(62.2005, 90.0917)">
<rect x="-0.0000" y="-0.4277" width="1.0364" height="0.8555" ry="0.0000" fill="currentColor"/>
</g>
</g>
<g transform="translate(62.2005, 90.0917)">
<path transform="scale(0.0032, -0.0032)" d="M163 31l125 101c2 2 5 3 8 3s6 -1 8 -3l18 -14c3 -2 4 -6 4 -10s-1 -8 -4 -10l-121 -98l121 -98c3 -2 4 -6 4 -10s-1 -8 -4 -10l-18 -14c-2 -2 -5 -3 -8 -3s-6 1 -8 3l-125 101l-125 -101c-2 -2 -5 -3 -8 -3s-6 1 -8 3l-17 14c-3 2 -5 6 -5 10s2 8 5 10l120 98l-120 98
c-3 2 -5 6 -5 10s2 8 5 10l17 14c2 2 5 3 8 3s6 -1 8 -3z" fill="currentColor"/>
</g>
<g transform="translate(62.2005, 80.3417)">
<path transform="scale(0.0040, -0.0040)" d="M163 31l125 101c2 2 5 3 8 3s6 -1 8 -3l18 -14c3 -2 4 -6 4 -10s-1 -8 -4 -10l-121 -98l121 -98c3 -2 4 -6 4 -10s-1 -8 -4 -10l-18 -14c-2 -2 -5 -3 -8 -3s-6 1 -8 3l-125 101l-125 -101c-2 -2 -5 -3 -8 -3s-6 1 -8 3l-17 14c-3 2 -5 6 -5 10s2 8 5 10l120 98l-120 98
c-3 2 -5 6 -5 10s2 8 5 10l17 14c2 2 5 3 8 3s6 -1 8 -3z" fill="currentColor"/>
</g>
<g transform="translate(21.5883, 78.8417)">
<rect x="-0.0490" y="0.1967" width="0.0980" height="2.8033" ry="0.0250" fill="currentColor"/>
</g>
<g transform="translate(24.1057, 78.8417)">
<path transform="scale(0.0040, -0.0040)" d="M222 135c53 0 104 -27 104 -86c0 -71 -56 -120 -103 -148c-36 -22 -76 -36 -118 -36c-53 0 -105 27 -105 86c0 71 57 120 104 148c36 22 76 36 118 36z" fill="currentColor"/>
</g>
<g color="rgb(100.0000%, 100.0000%, 100.0000%)">
<g transform="translate(21.5393, 88.5917)">
<rect x="0.1003" y="-0.6295" width="1.0030" height="1.2590" ry="0.0000" fill="currentColor"/>
</g>
</g>
<g transform="translate(21.6396, 89.1999)">
<text font-family="serif" font-weight="bold" font-size="1.7463" text-anchor="start" fill="currentColor">
<tspan>6</tspan>
</text>
</g>
<g transform="translate(21.5393, 78.8417)">
<path transform="scale(0.0040, -0.0040)" d="M222 135c53 0 104 -27 104 -86c0 -71 -56 -120 -103 -148c-36 -22 -76 -36 -118 -36c-53 0 -105 27 -105 86c0 71 57 120 104 148c36 22 76 36 118 36z" fill="currentColor"/>
</g>
<g transform="translate(40.6806, 78.8417)">
<rect x="-0.0490" y="0.1967" width="0.0980" height="2.8033" ry="0.0250" fill="currentColor"/>
</g>
<g color="rgb(100.0000%, 100.0000%, 100.0000%)">
<g transform="translate(26.6720, 88.5917)">
<rect x="0.1003" y="-0.6295" width="1.0030" height="1.2590" ry="0.0000" fill="currentColor"/>
</g>
</g>
<g transform="translate(26.7723, 89.1999)">
<text font-family="serif" font-weight="bold" font-size="1.7463" text-anchor="start" fill="currentColor">
<tspan>6</tspan>
</text>
</g>
<g transform="translate(26.6720, 78.8417)">
<path transform="scale(0.0040, -0.0040)" d="M222 135c53 0 104 -27 104 -86c0 -71 -56 -120 -103 -148c-36 -22 -76 -36 -118 -36c-53 0 -105 27 -105 86c0 71 57 120 104 148c36 22 76 36 118 36z" fill="currentColor"/>
</g>
<g transform="translate(24.1546, 78.8417)">
<rect x="-0.0490" y="0.1967" width="0.0980" height="2.8033" ry="0.0250" fill="currentColor"/>
</g>
<g color="rgb(100.0000%, 100.0000%, 100.0000%)">
<g transform="translate(24.1057, 88.5917)">
<rect x="0.1003" y="-0.6295" width="1.0030" height="1.2590" ry="0.0000" fill="currentColor"/>
</g>
</g>
<g transform="translate(24.2059, 89.1999)">
<text font-family="serif" font-weight="bold" font-size="1.7463" text-anchor="start" fill="currentColor">
<tspan>6</tspan>
</text>
</g>
<g transform="translate(4.4633, 87.1268)">
<text font-family="sans-serif" font-weight="bold" font-size="1.9599" text-anchor="start" fill="currentColor">
<tspan>T</tspan>
</text>
</g>
<g transform="translate(4.3566, 88.5566)">
<text font-family="sans-serif" font-weight="bold" font-size="1.9599" text-anchor="start" fill="currentColor">
<tspan>A</tspan>
</text>
</g>
<g transform="translate(4.3566, 89.9863)">
<text font-family="sans-serif" font-weight="bold" font-size="1.9599" text-anchor="start" fill="currentColor">
<tspan>B</tspan>
</text>
</g>
<g transform="translate(7.8566, 77.8417)">
<path transform="scale(0.0040, -0.0040)" d="M215 -316c0 -9 -8 -17 -17 -17s-17 8 -17 17v151l-87 -31v-162c0 -9 -8 -17 -17 -17s-17 8 -17 17v150l-39 -13c-10 -4 -21 4 -21 15v64c0 7 5 13 11 15l49 18v164l-39 -14c-10 -4 -21 4 -21 15v65c0 7 5 13 11 15l49 17v163c0 9 8 17 17 17s17 -8 17 -17v-151l87 31v162
c0 9 8 17 17 17s17 -8 17 -17v-150l39 13c10 4 21 -4 21 -15v-64c0 -7 -5 -13 -11 -15l-49 -18v-164l39 14c10 4 21 -4 21 -15v-65c0 -7 -5 -13 -11 -15l-49 -17v-163zM94 67v-164l87 30v164z" fill="currentColor"/>
</g>
<g transform="translate(8.9566, 79.3417)">
<path transform="scale(0.0040, -0.0040)" d="M215 -316c0 -9 -8 -17 -17 -17s-17 8 -17 17v151l-87 -31v-162c0 -9 -8 -17 -17 -17s-17 8 -17 17v150l-39 -13c-10 -4 -21 4 -21 15v64c0 7 5 13 11 15l49 18v164l-39 -14c-10 -4 -21 4 -21 15v65c0 7 5 13 11 15l49 17v163c0 9 8 17 17 17s17 -8 17 -17v-151l87 31v162
c0 9 8 17 17 17s17 -8 17 -17v-150l39 13c10 4 21 -4 21 -15v-64c0 -7 -5 -13 -11 -15l-49 -18v-164l39 14c10 4 21 -4 21 -15v-65c0 -7 -5 -13 -11 -15l-49 -17v-163zM94 67v-164l87 30v164z" fill="currentColor"/>
</g>
<g transform="translate(10.0566, 77.3417)">
<path transform="scale(0.0040, -0.0040)" d="M215 -316c0 -9 -8 -17 -17 -17s-17 8 -17 17v151l-87 -31v-162c0 -9 -8 -17 -17 -17s-17 8 -17 17v150l-39 -13c-10 -4 -21 4 -21 15v64c0 7 5 13 11 15l49 18v164l-39 -14c-10 -4 -21 4 -21 15v65c0 7 5 13 11 15l49 17v163c0 9 8 17 17 17s17 -8 17 -17v-151l87 31v162
c0 9 8 17 17 17s17 -8 17 -17v-150l39 13c10 4 21 -4 21 -15v-64c0 -7 -5 -13 -11 -15l-49 -18v-164l39 14c10 4 21 -4 21 -15v-65c0 -7 -5 -13 -11 -15l-49 -17v-163zM94 67v-164l87 30v164z" fill="currentColor"/>
</g>
<g transform="translate(11.1566, 78.8417)">
<path transform="scale(0.0040, -0.0040)" d="M215 -316c0 -9 -8 -17 -17 -17s-17 8 -17 17v151l-87 -31v-162c0 -9 -8 -17 -17 -17s-17 8 -17 17v150l-39 -13c-10 -4 -21 4 -21 15v64c0 7 5 13 11 15l49 18v164l-39 -14c-10 -4 -21 4 -21 15v65c0 7 5 13 11 15l49 17v163c0 9 8 17 17 17s17 -8 17 -17v-151l87 31v162
c0 9 8 17 17 17s17 -8 17 -17v-150l39 13c10 4 21 -4 21 -15v-64c0 -7 -5 -13 -11 -15l-49 -18v-164l39 14c10 4 21 -4 21 -15v-65c0 -7 -5 -13 -11 -15l-49 -17v-163zM94 67v-164l87 30v164z" fill="currentColor"/>
</g>
<g transform="translate(12.2566, 80.3417)">
<path transform="scale(0.0040, -0.0040)" d="M215 -316c0 -9 -8 -17 -17 -17s-17 8 -17 17v151l-87 -31v-162c0 -9 -8 -17 -17 -17s-17 8 -17 17v150l-39 -13c-10 -4 -21 4 -21 15v64c0 7 5 13 11 15l49 18v164l-39 -14c-10 -4 -21 4 -21 15v65c0 7 5 13 11 15l49 17v163c0 9 8 17 17 17s17 -8 17 -17v-151l87 31v162
c0 9 8 17 17 17s17 -8 17 -17v-150l39 13c10 4 21 -4 21 -15v-64c0 -7 -5 -13 -11 -15l-49 -18v-164l39 14c10 4 21 -4 21 -15v-65c0 -7 -5 -13 -11 -15l-49 -17v-163zM94 67v-164l87 30v164z" fill="currentColor"/>
</g>
<g transform="translate(13.3566, 78.3417)">
<path transform="scale(0.0040, -0.0040)" d="M215 -316c0 -9 -8 -17 -17 -17s-17 8 -17 17v151l-87 -31v-162c0 -9 -8 -17 -17 -17s-17 8 -17 17v150l-39 -13c-10 -4 -21 4 -21 15v64c0 7 5 13 11 15l49 18v164l-39 -14c-10 -4 -21 4 -21 15v65c0 7 5 13 11 15l49 17v163c0 9 8 17 17 17s17 -8 17 -17v-151l87 31v162
c0 9 8 17 17 17s17 -8 17 -17v-150l39 13c10 4 21 -4 21 -15v-64c0 -7 -5 -13 -11 -15l-49 -18v-164l39 14c10 4 21 -4 21 -15v-65c0 -7 -5 -13 -11 -15l-49 -17v-163zM94 67v-164l87 30v164z" fill="currentColor"/>
</g>
<g transform="translate(4.9117, 82.0595)">
<text font-family="serif" font-style="italic" font-size="1.3862" text-anchor="start" fill="currentColor">
<tspan>8</tspan>
</text>
</g>
<g transform="translate(4.3566, 77.8417)">
<path transform="scale(0.0040, -0.0040)" d="M556 -125c0 29 23 52 52 52s52 -23 52 -52s-23 -52 -52 -52s-52 23 -52 52zM556 125c0 29 23 52 52 52s52 -23 52 -52s-23 -52 -52 -52s-52 23 -52 52zM233 261c171 0 292 -86 292 -248c0 -263 -264 -415 -517 -521c-2 -2 -5 -3 -8 -3c-6 0 -11 5 -11 11c0 3 1 6 3 8
c203 118 415 265 415 494c0 121 -64 237 -174 237c-79 0 -138 -57 -164 -133c14 8 28 13 43 13c55 0 100 -45 100 -100c0 -58 -44 -107 -100 -107c-60 0 -112 48 -112 107c0 132 103 242 233 242z" fill="currentColor"/>
</g>
<g transform="translate(3.5360, 83.4667)">
<rect x="0.0000" y="-6.6627" width="0.1206" height="13.3254" ry="0.0377" fill="currentColor"/>
</g>
<g transform="translate(2.2860, 76.5790)">
<path transform="scale(0.0040, -0.0040)" d="M0 -56v91c0 12 10 21 22 21h43c164 0 281 136 377 272c10 14 32 -1 22 -15c-103 -145 -222 -369 -399 -369h-65z" fill="currentColor"/>
</g>
<g transform="translate(2.2860, 90.3544)">
<path transform="scale(0.0040, -0.0040)" d="M0 56h65c177 0 296 -224 399 -369c10 -14 -12 -29 -22 -15c-96 136 -213 272 -377 272h-43c-12 0 -22 9 -22 21v91z" fill="currentColor"/>
</g>
<g transform="translate(2.2860, 83.4667)">
<rect x="0.0000" y="-6.7077" width="0.4500" height="13.4154" ry="0.0000" fill="currentColor"/>
</g>
<g transform="translate(19.0220, 78.8417)">
<rect x="-0.0490" y="0.1967" width="0.0980" height="2.8033" ry="0.0250" fill="currentColor"/>
</g>
<g color="rgb(100.0000%, 100.0000%, 100.0000%)">
<g transform="translate(18.9730, 88.5917)">
<rect x="0.1003" y="-0.6295" width="1.0030" height="1.2590" ry="0.0000" fill="currentColor"/>
</g>
</g>
<g transform="translate(19.0733, 89.1999)">
<text font-family="serif" font-weight="bold" font-size="1.7463" text-anchor="start" fill="currentColor">
<tspan>6</tspan>
</text>
</g>
<g transform="translate(18.9730, 78.8417)">
<path transform="scale(0.0040, -0.0040)" d="M222 135c53 0 104 -27 104 -86c0 -71 -56 -120 -103 -148c-36 -22 -76 -36 -118 -36c-53 0 -105 27 -105 86c0 71 57 120 104 148c36 22 76 36 118 36z" fill="currentColor"/>
</g>
<g transform="translate(26.7210, 78.8417)">
<rect x="-0.0490" y="0.1967" width="0.0980" height="2.8033" ry="0.0250" fill="currentColor"/>
</g>
<g transform="translate(16.4556, 78.8417)">
<rect x="-0.0490" y="0.1967" width="0.0980" height="2.8033" ry="0.0250" fill="currentColor"/>
</g>
<g color="rgb(100.0000%, 100.0000%, 100.0000%)">
<g transform="translate(16.4066, 88.5917)">
<rect x="0.1003" y="-0.6295" width="1.0030" height="1.2590" ry="0.0000" fill="currentColor"/>
</g>
</g>
<g transform="translate(16.5069, 89.1999)">
<text font-family="serif" font-weight="bold" font-size="1.7463" text-anchor="start" fill="currentColor">
<tspan>6</tspan>
</text>
</g>
<g transform="translate(16.4066, 78.8417)">
<path transform="scale(0.0040, -0.0040)" d="M222 135c53 0 104 -27 104 -86c0 -71 -56 -120 -103 -148c-36 -22 -76 -36 -118 -36c-53 0 -105 27 -105 86c0 71 57 120 104 148c36 22 76 36 118 36z" fill="currentColor"/>
</g>
<g transform="translate(38.1143, 78.8417)">
<rect x="-0.0490" y="0.1967" width="0.0980" height="2.8033" ry="0.0250" fill="currentColor"/>
</g>
<g color="rgb(100.0000%, 100.0000%, 100.0000%)">
<g transform="translate(38.0653, 88.5917)">
<rect x="0.1003" y="-0.6295" width="1.0030" height="1.2590" ry="0.0000" fill="currentColor"/>
</g>
</g>
<g transform="translate(38.1656, 89.1999)">
<text font-family="serif" font-weight="bold" font-size="1.7463" text-anchor="start" fill="currentColor">
<tspan>6</tspan>
</text>
</g>
<g transform="translate(38.0653, 78.8417)">
<path transform="scale(0.0040, -0.0040)" d="M222 135c53 0 104 -27 104 -86c0 -71 -56 -120 -103 -148c-36 -22 -76 -36 -118 -36c-53 0 -105 27 -105 86c0 71 57 120 104 148c36 22 76 36 118 36z" fill="currentColor"/>
</g>
<g transform="translate(34.4200, 78.8417)">
<rect x="-0.0490" y="0.1967" width="0.0980" height="2.8033" ry="0.0250" fill="currentColor"/>
</g>
<g color="rgb(100.0000%, 100.0000%, 100.0000%)">
<g transform="translate(34.3710, 88.5917)">
<rect x="0.1003" y="-0.6295" width="1.0030" height="1.2590" ry="0.0000" fill="currentColor"/>
</g>
</g>
<g transform="translate(34.4713, 89.1999)">
<text font-family="serif" font-weight="bold" font-size="1.7463" text-anchor="start" fill="currentColor">
<tspan>6</tspan>
</text>
</g>
<g color="rgb(100.0000%, 100.0000%, 100.0000%)">
<g transform="translate(40.6316, 88.5917)">
<rect x="0.1003" y="-0.6295" width="1.0030" height="1.2590" ry="0.0000" fill="currentColor"/>
</g>
</g>
<g transform="translate(40.7319, 89.1999)">
<text font-family="serif" font-weight="bold" font-size="1.7463" text-anchor="start" fill="currentColor">
<tspan>6</tspan>
</text>
</g>
<g transform="translate(40.6316, 78.8417)">
<path transform="scale(0.0040, -0.0040)" d="M222 135c53 0 104 -27 104 -86c0 -71 -56 -120 -103 -148c-36 -22 -76 -36 -118 -36c-53 0 -105 27 -105 86c0 71 57 120 104 148c36 22 76 36 118 36z" fill="currentColor"/>
</g>
<g transform="translate(29.2873, 78.8417)">
<rect x="-0.0490" y="0.1967" width="0.0980" height="2.8033" ry="0.0250" fill="currentColor"/>
</g>
<g transform="translate(34.3710, 78.8417)">
<path transform="scale(0.0040, -0.0040)" d="M222 135c53 0 104 -27 104 -86c0 -71 -56 -120 -103 -148c-36 -22 -76 -36 -118 -36c-53 0 -105 27 -105 86c0 71 57 120 104 148c36 22 76 36 118 36z" fill="currentColor"/>
</g>
<g transform="translate(31.8047, 78.8417)">
<path transform="scale(0.0040, -0.0040)" d="M222 135c53 0 104 -27 104 -86c0 -71 -56 -120 -103 -148c-36 -22 -76 -36 -118 -36c-53 0 -105 27 -105 86c0 71 57 120 104 148c36 22 76 36 118 36z" fill="currentColor"/>
</g>
<g color="rgb(100.0000%, 100.0000%, 100.0000%)">
<g transform="translate(31.8047, 88.5917)">
<rect x="0.1003" y="-0.6295" width="1.0030" height="1.2590" ry="0.0000" fill="currentColor"/>
</g>
</g>
<g transform="translate(31.9050, 89.1999)">
<text font-family="serif" font-weight="bold" font-size="1.7463" text-anchor="start" fill="currentColor">
<tspan>6</tspan>
</text>
</g>
<g transform="translate(31.8537, 78.8417)">
<rect x="-0.0490" y="0.1967" width="0.0980" height="2.8033" ry="0.0250" fill="currentColor"/>
</g>
<g color="rgb(100.0000%, 100.0000%, 100.0000%)">
<g transform="translate(29.2383, 88.5917)">
<rect x="0.1003" y="-0.6295" width="1.0030" height="1.2590" ry="0.0000" fill="currentColor"/>
</g>
</g>
<g transform="translate(29.3386, 89.1999)">
<text font-family="serif" font-weight="bold" font-size="1.7463" text-anchor="start" fill="currentColor">
<tspan>6</tspan>
</text>
</g>
<g transform="translate(29.2383, 78.8417)">
<path transform="scale(0.0040, -0.0040)" d="M222 135c53 0 104 -27 104 -86c0 -71 -56 -120 -103 -148c-36 -22 -76 -36 -118 -36c-53 0 -105 27 -105 86c0 71 57 120 104 148c36 22 76 36 118 36z" fill="currentColor"/>
</g>
</svg>
