<svg xmlns="http://www.w3.org/2000/svg" xmlns:xlink="http://www.w3.org/1999/xlink" version="1.2" width="210.00mm" height="297.00mm" viewBox="0 0 74.6885 105.6309">
<style type="text/css">
<![CDATA[
tspan { white-space: pre; }
]]>
</style>
<!-- Page: 1/1 -->
<g transform="translate(26.2157, 5.3604)">
<text font-family="serif" font-weight="bold" font-size="3.4923" text-anchor="start" fill="currentColor">
<tspan>Black Magic</tspan>
</text>
</g>
<g transform="translate(57.5599, 8.8604)">
<text font-family="serif" font-size="2.2003" text-anchor="start" fill="currentColor">
<tspan>Magic Wands</tspan>
</text>
</g>
<g transform="translate(8.8915, 29.8417)">
<line stroke-linejoin="round" stroke-linecap="round" stroke-width="0.0754" stroke="currentColor" x1="0.0377" y1="0" x2="62.2027" y2="0"/>
</g>
<g transform="translate(8.8915, 28.3417)">
<line stroke-linejoin="round" stroke-linecap="round" stroke-width="0.0754" stroke="currentColor" x1="0.0377" y1="0" x2="62.2027" y2="0"/>
</g>
<g transform="translate(8.8915, 26.8417)">
<line stroke-linejoin="round" stroke-linecap="round" stroke-width="0.0754" stroke="currentColor" x1="0.0377" y1="0" x2="62.2027" y2="0"/>
</g>
<g transform="translate(8.8915, 25.3417)">
<line stroke-linejoin="round" stroke-linecap="round" stroke-width="0.0754" stroke="currentColor" x1="0.0377" y1="0" x2="62.2027" y2="0"/>
</g>
<g transform="translate(69.6277, 26.0917)">
<path transform="scale(0.0040, -0.0040)" d="M0 0c0 32 25 57 57 57s57 -25 57 -57s-25 -57 -57 -57s-57 25 -57 57z" fill="currentColor"/>
</g>
<g transform="translate(69.6277, 29.0917)">
<path transform="scale(0.0040, -0.0040)" d="M0 0c0 32 25 57 57 57s57 -25 57 -57s-25 -57 -57 -57s-57 25 -57 57z" fill="currentColor"/>
</g>
<g transform="translate(70.6797, 27.5917)">
<rect x="0.0000" y="-2.2500" width="0.4521" height="4.5000" ry="0.0000" fill="currentColor"/>
</g>
<g transform="translate(70.3105, 27.5917)">
<rect x="0.0000" y="-2.2500" width="0.1432" height="4.5000" ry="0.0000" fill="currentColor"/>
</g>
<g transform="translate(42.8533, 27.5917)">
<rect x="0.0000" y="-2.2500" width="0.1432" height="4.5000" ry="0.0000" fill="currentColor"/>
</g>
<g color="rgb(100.0000%, 100.0000%, 100.0000%)">
<g transform="translate(50.5746, 28.3417)">
<rect x="0.1003" y="-0.6295" width="1.0030" height="1.2590" ry="0.0000" fill="currentColor"/>
</g>
</g>
<g transform="translate(50.6749, 28.9499)">
<text font-family="serif" font-weight="bold" font-size="1.7463" text-anchor="start" fill="currentColor">
<tspan>9</tspan>
</text>
</g>
<g transform="translate(51.1764, 27.5917)">
<rect x="-0.0490" y="1.5998" width="0.0980" height="2.6978" ry="0.0250" fill="currentColor"/>
</g>
<g color="rgb(100.0000%, 100.0000%, 100.0000%)">
<g transform="translate(56.9256, 28.3417)">
<rect x="0.1003" y="-0.6295" width="1.0030" height="1.2590" ry="0.0000" fill="currentColor"/>
</g>
</g>
<g transform="translate(57.0259, 28.9499)">
<text font-family="serif" font-weight="bold" font-size="1.7463" text-anchor="start" fill="currentColor">
<tspan>6</tspan>
</text>
</g>
<g color="rgb(100.0000%, 100.0000%, 100.0000%)">
<g transform="translate(53.7501, 28.3417)">
<rect x="0.1003" y="-0.6295" width="1.0030" height="1.2590" ry="0.0000" fill="currentColor"/>
</g>
</g>
<g transform="translate(53.8504, 28.9499)">
<text font-family="serif" font-weight="bold" font-size="1.7463" text-anchor="start" fill="currentColor">
<tspan>9</tspan>
</text>
</g>
<g transform="translate(54.3519, 27.5917)">
<rect x="-0.0490" y="1.5998" width="0.0980" height="2.6978" ry="0.0250" fill="currentColor"/>
</g>
<g transform="translate(18.0021, 33.3894)">
<polygon stroke-linejoin="round" stroke-linecap="round" stroke-width="0.0500" fill="currentColor" stroke="currentColor" points="9.5995 -0.2150 9.5995 0.2150 0.0250 0.2150 0.0250 -0.2150"/>
</g>
<g color="rgb(100.0000%, 100.0000%, 100.0000%)">
<g transform="translate(44.2236, 28.3417)">
<rect x="0.1003" y="-0.6295" width="1.0030" height="1.2590" ry="0.0000" fill="currentColor"/>
</g>
</g>
<g transform="translate(44.3239, 28.9499)">
<text font-family="serif" font-weight="bold" font-size="1.7463" text-anchor="start" fill="currentColor">
<tspan>9</tspan>
</text>
</g>
<g transform="translate(44.8254, 27.5917)">
<rect x="-0.0490" y="1.5998" width="0.0980" height="2.6978" ry="0.0250" fill="currentColor"/>
</g>
<g transform="translate(48.0009, 27.5917)">
<rect x="-0.0490" y="1.5998" width="0.0980" height="2.6978" ry="0.0250" fill="currentColor"/>
</g>
<g color="rgb(100.0000%, 100.0000%, 100.0000%)">
<g transform="translate(47.3991, 28.3417)">
<rect x="0.1003" y="-0.6295" width="1.0030" height="1.2590" ry="0.0000" fill="currentColor"/>
</g>
</g>
<g transform="translate(47.4994, 28.9499)">
<text font-family="serif" font-weight="bold" font-size="1.7463" text-anchor="start" fill="currentColor">
<tspan>9</tspan>
</text>
</g>
<g color="rgb(100.0000%, 100.0000%, 100.0000%)">
<g transform="translate(66.4521, 28.3417)">
<rect x="0.1003" y="-0.6295" width="1.0030" height="1.2590" ry="0.0000" fill="currentColor"/>
</g>
</g>
<g transform="translate(66.5524, 28.9499)">
<text font-family="serif" font-weight="bold" font-size="1.7463" text-anchor="start" fill="currentColor">
<tspan>6</tspan>
</text>
</g>
<g transform="translate(67.0539, 27.5917)">
<rect x="-0.0490" y="1.5998" width="0.0980" height="2.6978" ry="0.0250" fill="currentColor"/>
</g>
<g transform="translate(66.4521, 24.5540)">
<text font-family="serif" font-size="1.7463" text-anchor="start" fill="currentColor">
<tspan>21×</tspan>
</text>
</g>
<g transform="translate(57.4784, 31.8894)">
<polygon stroke-linejoin="round" stroke-linecap="round" stroke-width="0.0500" fill="currentColor" stroke="currentColor" points="9.5995 -0.2150 9.5995 0.2150 0.0250 0.2150 0.0250 -0.2150"/>
</g>
<g transform="translate(44.7764, 31.8894)">
<polygon stroke-linejoin="round" stroke-linecap="round" stroke-width="0.0500" fill="currentColor" stroke="currentColor" points="9.5995 -0.2150 9.5995 0.2150 0.0250 0.2150 0.0250 -0.2150"/>
</g>
<g transform="translate(30.7041, 33.3894)">
<polygon stroke-linejoin="round" stroke-linecap="round" stroke-width="0.0500" fill="currentColor" stroke="currentColor" points="9.5995 -0.2150 9.5995 0.2150 0.0250 0.2150 0.0250 -0.2150"/>
</g>
<g color="rgb(100.0000%, 100.0000%, 100.0000%)">
<g transform="translate(60.1011, 28.3417)">
<rect x="0.1003" y="-0.6295" width="1.0030" height="1.2590" ry="0.0000" fill="currentColor"/>
</g>
</g>
<g transform="translate(60.2014, 28.9499)">
<text font-family="serif" font-weight="bold" font-size="1.7463" text-anchor="start" fill="currentColor">
<tspan>6</tspan>
</text>
</g>
<g transform="translate(60.7029, 27.5917)">
<rect x="-0.0490" y="1.5998" width="0.0980" height="2.6978" ry="0.0250" fill="currentColor"/>
</g>
<g transform="translate(57.5274, 27.5917)">
<rect x="-0.0490" y="1.5998" width="0.0980" height="2.6978" ry="0.0250" fill="currentColor"/>
</g>
<g color="rgb(100.0000%, 100.0000%, 100.0000%)">
<g transform="translate(63.2766, 28.3417)">
<rect x="0.1003" y="-0.6295" width="1.0030" height="1.2590" ry="0.0000" fill="currentColor"/>
</g>
</g>
<g transform="translate(63.3769, 28.9499)">
<text font-family="serif" font-weight="bold" font-size="1.7463" text-anchor="start" fill="currentColor">
<tspan>6</tspan>
</text>
</g>
<g transform="translate(63.8784, 27.5917)">
<rect x="-0.0490" y="1.5998" width="0.0980" height="2.6978" ry="0.0250" fill="currentColor"/>
</g>
<g color="rgb(100.0000%, 100.0000%, 100.0000%)">
<g transform="translate(20.6248, 29.8417)">
<rect x="0.1003" y="-0.6295" width="1.0030" height="1.2590" ry="0.0000" fill="currentColor"/>
</g>
</g>
<g transform="translate(20.7251, 30.4499)">
<text font-family="serif" font-weight="bold" font-size="1.7463" text-anchor="start" fill="currentColor">
<tspan>6</tspan>
</text>
</g>
<g transform="translate(21.2266, 27.5917)">
<rect x="-0.0490" y="3.0998" width="0.0980" height="2.6978" ry="0.0250" fill="currentColor"/>
</g>
<g color="rgb(100.0000%, 100.0000%, 100.0000%)">
<g transform="translate(23.8003, 29.8417)">
<rect x="0.1003" y="-0.6295" width="1.0030" height="1.2590" ry="0.0000" fill="currentColor"/>
</g>
</g>
<g transform="translate(23.9006, 30.4499)">
<text font-family="serif" font-weight="bold" font-size="1.7463" text-anchor="start" fill="currentColor">
<tspan>6</tspan>
</text>
</g>
<g transform="translate(24.4021, 27.5917)">
<rect x="-0.0490" y="3.0998" width="0.0980" height="2.6978" ry="0.0250" fill="currentColor"/>
</g>
<g color="rgb(100.0000%, 100.0000%, 100.0000%)">
<g transform="translate(26.9758, 29.8417)">
<rect x="0.1003" y="-0.6295" width="1.0030" height="1.2590" ry="0.0000" fill="currentColor"/>
</g>
</g>
<g transform="translate(27.0761, 30.4499)">
<text font-family="serif" font-weight="bold" font-size="1.7463" text-anchor="start" fill="currentColor">
<tspan>6</tspan>
</text>
</g>
<g transform="translate(9.7982, 26.8768)">
<text font-family="sans-serif" font-weight="bold" font-size="1.9599" text-anchor="start" fill="currentColor">
<tspan>T</tspan>
</text>
</g>
<g transform="translate(9.6915, 28.3066)">
<text font-family="sans-serif" font-weight="bold" font-size="1.9599" text-anchor="start" fill="currentColor">
<tspan>A</tspan>
</text>
</g>
<g transform="translate(9.6915, 29.7363)">
<text font-family="sans-serif" font-weight="bold" font-size="1.9599" text-anchor="start" fill="currentColor">
<tspan>B</tspan>
</text>
</g>
<g transform="translate(3.5020, 28.3599)">
<text font-family="serif" font-size="2.2003" text-anchor="start" fill="currentColor">
<tspan>Bass</tspan>
</text>
</g>
<g color="rgb(100.0000%, 100.0000%, 100.0000%)">
<g transform="translate(17.4493, 29.8417)">
<rect x="0.1003" y="-0.6295" width="1.0030" height="1.2590" ry="0.0000" fill="currentColor"/>
</g>
</g>
<g transform="translate(17.5496, 30.4499)">
<text font-family="serif" font-weight="bold" font-size="1.7463" text-anchor="start" fill="currentColor">
<tspan>6</tspan>
</text>
</g>
<g transform="translate(13.8915, 27.5917)">
<path transform="scale(0.0040, -0.0040)" d="M208 319c21 13 42 27 57 47c11 15 18 32 25 49c4 9 20 7 20 -7v-256h68c9 0 13 -7 13 -14s-4 -13 -13 -13h-68v-16c0 -45 26 -88 68 -88c7 0 10 -5 10 -10s-3 -11 -10 -11c-41 0 -82 13 -123 13s-82 -13 -123 -13c-7 0 -10 6 -10 11s3 10 10 10c42 0 68 43 68 88v16h-173
c-21 0 -29 13 -29 21c0 2 1 5 2 6c81 96 146 208 146 333c0 10 7 18 15 15c22 -7 44 -13 67 -13s45 6 67 13c12 4 21 -8 15 -15l-283 -333h173v147c0 8 2 16 8 20z" fill="currentColor"/>
</g>
<g transform="translate(13.8915, 29.6189)">
<path transform="scale(0.0040, -0.0040)" d="M208 319c21 13 42 27 57 47c11 15 18 32 25 49c4 9 20 7 20 -7v-256h68c9 0 13 -7 13 -14s-4 -13 -13 -13h-68v-16c0 -45 26 -88 68 -88c7 0 10 -5 10 -10s-3 -11 -10 -11c-41 0 -82 13 -123 13s-82 -13 -123 -13c-7 0 -10 6 -10 11s3 10 10 10c42 0 68 43 68 88v16h-173
c-21 0 -29 13 -29 21c0 2 1 5 2 6c81 96 146 208 146 333c0 10 7 18 15 15c22 -7 44 -13 67 -13s45 6 67 13c12 4 21 -8 15 -15l-283 -333h173v147c0 8 2 16 8 20z" fill="currentColor"/>
</g>
<g transform="translate(13.8915, 23.9812)">
<rect x="1.0475" y="-2.6727" width="0.1158" height="2.4974" ry="0.0193" fill="currentColor"/>
</g>
<g transform="translate(13.8915, 23.9812)">
<path transform="scale(0.0036, -0.0036)" d="M222 135c53 0 104 -27 104 -86c0 -71 -56 -120 -103 -148c-36 -22 -76 -36 -118 -36c-53 0 -105 27 -105 86c0 71 57 120 104 148c36 22 76 36 118 36z" fill="currentColor"/>
</g>
<g transform="translate(15.0548, 24.4613)">
<text font-family="serif" font-size="2.2003" text-anchor="start" fill="currentColor">
<tspan> = 116</tspan>
</text>
</g>
<g transform="translate(18.0511, 27.5917)">
<rect x="-0.0490" y="3.0998" width="0.0980" height="2.6978" ry="0.0250" fill="currentColor"/>
</g>
<g transform="translate(37.1041, 27.5917)">
<rect x="-0.0490" y="3.0998" width="0.0980" height="2.6978" ry="0.0250" fill="currentColor"/>
</g>
<g color="rgb(100.0000%, 100.0000%, 100.0000%)">
<g transform="translate(33.3268, 29.8417)">
<rect x="0.1003" y="-0.6295" width="1.0030" height="1.2590" ry="0.0000" fill="currentColor"/>
</g>
</g>
<g transform="translate(33.4271, 30.4499)">
<text font-family="serif" font-weight="bold" font-size="1.7463" text-anchor="start" fill="currentColor">
<tspan>9</tspan>
</text>
</g>
<g transform="translate(33.9286, 27.5917)">
<rect x="-0.0490" y="3.0998" width="0.0980" height="2.6978" ry="0.0250" fill="currentColor"/>
</g>
<g color="rgb(100.0000%, 100.0000%, 100.0000%)">
<g transform="translate(36.5023, 29.8417)">
<rect x="0.1003" y="-0.6295" width="1.0030" height="1.2590" ry="0.0000" fill="currentColor"/>
</g>
</g>
<g transform="translate(36.6026, 30.4499)">
<text font-family="serif" font-weight="bold" font-size="1.7463" text-anchor="start" fill="currentColor">
<tspan>9</tspan>
</text>
</g>
<g color="rgb(100.0000%, 100.0000%, 100.0000%)">
<g transform="translate(39.6778, 29.8417)">
<rect x="0.1003" y="-0.6295" width="1.0030" height="1.2590" ry="0.0000" fill="currentColor"/>
</g>
</g>
<g transform="translate(39.7781, 30.4499)">
<text font-family="serif" font-weight="bold" font-size="1.7463" text-anchor="start" fill="currentColor">
<tspan>9</tspan>
</text>
</g>
<g transform="translate(40.2796, 27.5917)">
<rect x="-0.0490" y="3.0998" width="0.0980" height="2.6978" ry="0.0250" fill="currentColor"/>
</g>
<g color="rgb(100.0000%, 100.0000%, 100.0000%)">
<g transform="translate(30.1513, 29.8417)">
<rect x="0.1003" y="-0.6295" width="1.0030" height="1.2590" ry="0.0000" fill="currentColor"/>
</g>
</g>
<g transform="translate(30.2516, 30.4499)">
<text font-family="serif" font-weight="bold" font-size="1.7463" text-anchor="start" fill="currentColor">
<tspan>9</tspan>
</text>
</g>
<g transform="translate(30.7531, 27.5917)">
<rect x="-0.0490" y="3.0998" width="0.0980" height="2.6978" ry="0.0250" fill="currentColor"/>
</g>
<g transform="translate(27.5776, 27.5917)">
<rect x="-0.0490" y="3.0998" width="0.0980" height="2.6978" ry="0.0250" fill="currentColor"/>
</g>
<g transform="translate(70.9887, 45.0533)">
<rect x="0.0000" y="-2.2500" width="0.1432" height="4.5000" ry="0.0000" fill="currentColor"/>
</g>
<g transform="translate(43.5479, 45.0533)">
<rect x="0.0000" y="-2.2500" width="0.1432" height="4.5000" ry="0.0000" fill="currentColor"/>
</g>
<g transform="translate(3.5566, 47.3033)">
<line stroke-linejoin="round" stroke-linecap="round" stroke-width="0.0754" stroke="currentColor" x1="0.0377" y1="0" x2="67.5376" y2="0"/>
</g>
<g transform="translate(3.5566, 45.8033)">
<line stroke-linejoin="round" stroke-linecap="round" stroke-width="0.0754" stroke="currentColor" x1="0.0377" y1="0" x2="67.5376" y2="0"/>
</g>
<g transform="translate(3.5566, 44.3033)">
<line stroke-linejoin="round" stroke-linecap="round" stroke-width="0.0754" stroke="currentColor" x1="0.0377" y1="0" x2="67.5376" y2="0"/>
</g>
<g transform="translate(3.5566, 42.8033)">
<line stroke-linejoin="round" stroke-linecap="round" stroke-width="0.0754" stroke="currentColor" x1="0.0377" y1="0" x2="67.5376" y2="0"/>
</g>
<g transform="translate(19.9279, 45.0533)">
<path transform="scale(0.0040, -0.0040)" d="M-23 -113c0 26 10 40 36 40c34 0 85 -15 130 -37l-137 164c-7 8 -10 17 -10 25c0 33 49 64 86 96c26 22 39 54 39 85c0 24 -8 47 -24 67l-39 46c-2 3 -3 6 -3 9c0 7 7 14 14 14c3 0 7 -1 10 -5l152 -182c7 -8 10 -17 10 -25c0 -33 -49 -64 -86 -96
c-26 -22 -39 -54 -39 -85c0 -24 8 -47 24 -67l87 -104c2 -3 3 -5 3 -8c0 -7 -7 -14 -14 -14c-3 0 -7 1 -10 5c-19 22 -66 43 -102 43c-40 0 -52 -29 -52 -70c0 -35 11 -75 28 -96c6 -7 -4 -16 -10 -9c-46 55 -93 150 -93 204z" fill="currentColor"/>
</g>
<g transform="translate(29.3459, 45.8033)">
<path transform="scale(0.0040, -0.0040)" d="M367 0h-359c-4 0 -8 4 -8 8v140c0 4 4 8 8 8h359c4 0 8 -4 8 -8v-140c0 -4 -4 -8 -8 -8z" fill="currentColor"/>
</g>
<g transform="translate(57.0399, 45.3033)">
<path transform="scale(0.0040, -0.0040)" d="M142 -250h-134c-4 0 -8 4 -8 8v484c0 4 4 8 8 8h134c4 0 8 -4 8 -8v-484c0 -4 -4 -8 -8 -8z" fill="currentColor"/>
</g>
<g transform="translate(56.5610, 42.1656)">
<path transform="scale(0.0040, -0.0040)" d="M208 319c21 13 42 27 57 47c11 15 18 32 25 49c4 9 20 7 20 -7v-256h68c9 0 13 -7 13 -14s-4 -13 -13 -13h-68v-16c0 -45 26 -88 68 -88c7 0 10 -5 10 -10s-3 -11 -10 -11c-41 0 -82 13 -123 13s-82 -13 -123 -13c-7 0 -10 6 -10 11s3 10 10 10c42 0 68 43 68 88v16h-173
c-21 0 -29 13 -29 21c0 2 1 5 2 6c81 96 146 208 146 333c0 10 7 18 15 15c22 -7 44 -13 67 -13s45 6 67 13c12 4 21 -8 15 -15l-283 -333h173v147c0 8 2 16 8 20z" fill="currentColor"/>
</g>
<g transform="translate(4.4633, 44.3384)">
<text font-family="sans-serif" font-weight="bold" font-size="1.9599" text-anchor="start" fill="currentColor">
<tspan>T</tspan>
</text>
</g>
<g transform="translate(4.3566, 45.7681)">
<text font-family="sans-serif" font-weight="bold" font-size="1.9599" text-anchor="start" fill="currentColor">
<tspan>A</tspan>
</text>
</g>
<g transform="translate(4.3566, 47.1979)">
<text font-family="sans-serif" font-weight="bold" font-size="1.9599" text-anchor="start" fill="currentColor">
<tspan>B</tspan>
</text>
</g>
<g transform="translate(14.6939, 45.0533)">
<path transform="scale(0.0040, -0.0040)" d="M76 -250l116 327c-35 -12 -70 -23 -107 -23c-46 0 -87 34 -87 80c0 39 31 71 71 71c26 0 49 -16 57 -40c10 -28 6 -60 35 -60c17 0 58 54 65 70c5 11 20 10 24 0l-126 -425c-7 -6 -16 -9 -24 -9s-17 3 -24 9z" fill="currentColor"/>
</g>
<g transform="translate(10.0074, 51.7783)">
<path transform="scale(0.0040, -0.0040)" d="M0 0h-14v250h14v-250zM0 0v250c98 58 228 147 228 259c0 57 -15 112 -40 164c-3 15 9 25 21 25c7 0 14 -3 18 -10c25 -56 40 -117 40 -179c0 -203 -267 -306 -267 -509z" fill="currentColor"/>
</g>
<g transform="translate(9.9584, 45.0533)">
<rect x="-0.0490" y="3.0998" width="0.0980" height="3.6502" ry="0.0250" fill="currentColor"/>
</g>
<g color="rgb(100.0000%, 100.0000%, 100.0000%)">
<g transform="translate(9.3566, 47.3033)">
<rect x="0.1003" y="-0.6295" width="1.0030" height="1.2590" ry="0.0000" fill="currentColor"/>
</g>
</g>
<g transform="translate(9.4569, 47.9114)">
<text font-family="serif" font-weight="bold" font-size="1.7463" text-anchor="start" fill="currentColor">
<tspan>6</tspan>
</text>
</g>
<g transform="translate(3.5566, 64.3409)">
<line stroke-linejoin="round" stroke-linecap="round" stroke-width="0.0754" stroke="currentColor" x1="0.0377" y1="0" x2="67.5376" y2="0"/>
</g>
<g transform="translate(3.5566, 62.8409)">
<line stroke-linejoin="round" stroke-linecap="round" stroke-width="0.0754" stroke="currentColor" x1="0.0377" y1="0" x2="67.5376" y2="0"/>
</g>
<g transform="translate(3.5566, 61.3409)">
<line stroke-linejoin="round" stroke-linecap="round" stroke-width="0.0754" stroke="currentColor" x1="0.0377" y1="0" x2="67.5376" y2="0"/>
</g>
<g transform="translate(3.5566, 59.8409)">
<line stroke-linejoin="round" stroke-linecap="round" stroke-width="0.0754" stroke="currentColor" x1="0.0377" y1="0" x2="67.5376" y2="0"/>
</g>
<g transform="translate(69.6277, 60.5909)">
<path transform="scale(0.0040, -0.0040)" d="M0 0c0 32 25 57 57 57s57 -25 57 -57s-25 -57 -57 -57s-57 25 -57 57z" fill="currentColor"/>
</g>
<g transform="translate(69.6277, 63.5909)">
<path transform="scale(0.0040, -0.0040)" d="M0 0c0 32 25 57 57 57s57 -25 57 -57s-25 -57 -57 -57s-57 25 -57 57z" fill="currentColor"/>
</g>
<g transform="translate(70.6797, 62.0909)">
<rect x="0.0000" y="-2.2500" width="0.4521" height="4.5000" ry="0.0000" fill="currentColor"/>
</g>
<g transform="translate(70.3105, 62.0909)">
<rect x="0.0000" y="-2.2500" width="0.1432" height="4.5000" ry="0.0000" fill="currentColor"/>
</g>
<g transform="translate(7.5125, 60.5909)">
<path transform="scale(0.0040, -0.0040)" d="M0 0c0 32 25 57 57 57s57 -25 57 -57s-25 -57 -57 -57s-57 25 -57 57z" fill="currentColor"/>
</g>
<g transform="translate(7.5125, 63.5909)">
<path transform="scale(0.0040, -0.0040)" d="M0 0c0 32 25 57 57 57s57 -25 57 -57s-25 -57 -57 -57s-57 25 -57 57z" fill="currentColor"/>
</g>
<g transform="translate(7.1432, 62.0909)">
<rect x="0.0000" y="-2.2500" width="0.1432" height="4.5000" ry="0.0000" fill="currentColor"/>
</g>
<g transform="translate(6.4650, 62.0909)">
<rect x="0.0000" y="-2.2500" width="0.4521" height="4.5000" ry="0.0000" fill="currentColor"/>
</g>
<g transform="translate(38.6696, 62.0909)">
<rect x="0.0000" y="-2.2500" width="0.1432" height="4.5000" ry="0.0000" fill="currentColor"/>
</g>
<g color="rgb(100.0000%, 100.0000%, 100.0000%)">
<g transform="translate(47.5773, 62.8409)">
<rect x="0.1003" y="-0.6295" width="1.0030" height="1.2590" ry="0.0000" fill="currentColor"/>
</g>
</g>
<g transform="translate(47.6776, 63.4491)">
<text font-family="serif" font-weight="bold" font-size="1.7463" text-anchor="start" fill="currentColor">
<tspan>9</tspan>
</text>
</g>
<g transform="translate(48.1791, 62.0909)">
<rect x="-0.0490" y="1.5998" width="0.0980" height="2.6978" ry="0.0250" fill="currentColor"/>
</g>
<g color="rgb(100.0000%, 100.0000%, 100.0000%)">
<g transform="translate(54.9275, 62.8409)">
<rect x="0.1003" y="-0.6295" width="1.0030" height="1.2590" ry="0.0000" fill="currentColor"/>
</g>
</g>
<g transform="translate(55.0277, 63.4491)">
<text font-family="serif" font-weight="bold" font-size="1.7463" text-anchor="start" fill="currentColor">
<tspan>6</tspan>
</text>
</g>
<g color="rgb(100.0000%, 100.0000%, 100.0000%)">
<g transform="translate(40.2272, 62.8409)">
<rect x="0.1003" y="-0.6295" width="1.0030" height="1.2590" ry="0.0000" fill="currentColor"/>
</g>
</g>
<g transform="translate(40.3275, 63.4491)">
<text font-family="serif" font-weight="bold" font-size="1.7463" text-anchor="start" fill="currentColor">
<tspan>9</tspan>
</text>
</g>
<g color="rgb(100.0000%, 100.0000%, 100.0000%)">
<g transform="translate(51.2524, 62.8409)">
<rect x="0.1003" y="-0.6295" width="1.0030" height="1.2590" ry="0.0000" fill="currentColor"/>
</g>
</g>
<g transform="translate(51.3527, 63.4491)">
<text font-family="serif" font-weight="bold" font-size="1.7463" text-anchor="start" fill="currentColor">
<tspan>9</tspan>
</text>
</g>
<g transform="translate(51.8542, 62.0909)">
<rect x="-0.0490" y="1.5998" width="0.0980" height="2.6978" ry="0.0250" fill="currentColor"/>
</g>
<g transform="translate(9.8220, 67.8886)">
<polygon stroke-linejoin="round" stroke-linecap="round" stroke-width="0.0500" fill="currentColor" stroke="currentColor" points="11.0981 -0.2150 11.0981 0.2150 0.0250 0.2150 0.0250 -0.2150"/>
</g>
<g transform="translate(40.8290, 62.0909)">
<rect x="-0.0490" y="1.5998" width="0.0980" height="2.6978" ry="0.0250" fill="currentColor"/>
</g>
<g color="rgb(100.0000%, 100.0000%, 100.0000%)">
<g transform="translate(43.9023, 62.8409)">
<rect x="0.1003" y="-0.6295" width="1.0030" height="1.2590" ry="0.0000" fill="currentColor"/>
</g>
</g>
<g transform="translate(44.0026, 63.4491)">
<text font-family="serif" font-weight="bold" font-size="1.7463" text-anchor="start" fill="currentColor">
<tspan>9</tspan>
</text>
</g>
<g transform="translate(44.5041, 62.0909)">
<rect x="-0.0490" y="1.5998" width="0.0980" height="2.6978" ry="0.0250" fill="currentColor"/>
</g>
<g color="rgb(100.0000%, 100.0000%, 100.0000%)">
<g transform="translate(65.9526, 62.8409)">
<rect x="0.1003" y="-0.6295" width="1.0030" height="1.2590" ry="0.0000" fill="currentColor"/>
</g>
</g>
<g transform="translate(66.0529, 63.4491)">
<text font-family="serif" font-weight="bold" font-size="1.7463" text-anchor="start" fill="currentColor">
<tspan>6</tspan>
</text>
</g>
<g transform="translate(66.5544, 62.0909)">
<rect x="-0.0490" y="1.5998" width="0.0980" height="2.6978" ry="0.0250" fill="currentColor"/>
</g>
<g transform="translate(65.9526, 59.0533)">
<text font-family="serif" font-size="1.7463" text-anchor="start" fill="currentColor">
<tspan>9×</tspan>
</text>
</g>
<g transform="translate(55.4802, 66.3886)">
<polygon stroke-linejoin="round" stroke-linecap="round" stroke-width="0.0500" fill="currentColor" stroke="currentColor" points="11.0981 -0.2150 11.0981 0.2150 0.0250 0.2150 0.0250 -0.2150"/>
</g>
<g transform="translate(40.7800, 66.3886)">
<polygon stroke-linejoin="round" stroke-linecap="round" stroke-width="0.0500" fill="currentColor" stroke="currentColor" points="11.0981 -0.2150 11.0981 0.2150 0.0250 0.2150 0.0250 -0.2150"/>
</g>
<g transform="translate(24.5222, 67.8886)">
<polygon stroke-linejoin="round" stroke-linecap="round" stroke-width="0.0500" fill="currentColor" stroke="currentColor" points="11.0981 -0.2150 11.0981 0.2150 0.0250 0.2150 0.0250 -0.2150"/>
</g>
<g color="rgb(100.0000%, 100.0000%, 100.0000%)">
<g transform="translate(58.6025, 62.8409)">
<rect x="0.1003" y="-0.6295" width="1.0030" height="1.2590" ry="0.0000" fill="currentColor"/>
</g>
</g>
<g transform="translate(58.7028, 63.4491)">
<text font-family="serif" font-weight="bold" font-size="1.7463" text-anchor="start" fill="currentColor">
<tspan>6</tspan>
</text>
</g>
<g transform="translate(59.2043, 62.0909)">
<rect x="-0.0490" y="1.5998" width="0.0980" height="2.6978" ry="0.0250" fill="currentColor"/>
</g>
<g transform="translate(55.5292, 62.0909)">
<rect x="-0.0490" y="1.5998" width="0.0980" height="2.6978" ry="0.0250" fill="currentColor"/>
</g>
<g color="rgb(100.0000%, 100.0000%, 100.0000%)">
<g transform="translate(62.2776, 62.8409)">
<rect x="0.1003" y="-0.6295" width="1.0030" height="1.2590" ry="0.0000" fill="currentColor"/>
</g>
</g>
<g transform="translate(62.3778, 63.4491)">
<text font-family="serif" font-weight="bold" font-size="1.7463" text-anchor="start" fill="currentColor">
<tspan>6</tspan>
</text>
</g>
<g transform="translate(62.8793, 62.0909)">
<rect x="-0.0490" y="1.5998" width="0.0980" height="2.6978" ry="0.0250" fill="currentColor"/>
</g>
<g color="rgb(100.0000%, 100.0000%, 100.0000%)">
<g transform="translate(12.9443, 64.3409)">
<rect x="0.1003" y="-0.6295" width="1.0030" height="1.2590" ry="0.0000" fill="currentColor"/>
</g>
</g>
<g transform="translate(13.0446, 64.9491)">
<text font-family="serif" font-weight="bold" font-size="1.7463" text-anchor="start" fill="currentColor">
<tspan>6</tspan>
</text>
</g>
<g transform="translate(13.5461, 62.0909)">
<rect x="-0.0490" y="3.0998" width="0.0980" height="2.6978" ry="0.0250" fill="currentColor"/>
</g>
<g color="rgb(100.0000%, 100.0000%, 100.0000%)">
<g transform="translate(16.6193, 64.3409)">
<rect x="0.1003" y="-0.6295" width="1.0030" height="1.2590" ry="0.0000" fill="currentColor"/>
</g>
</g>
<g transform="translate(16.7196, 64.9491)">
<text font-family="serif" font-weight="bold" font-size="1.7463" text-anchor="start" fill="currentColor">
<tspan>6</tspan>
</text>
</g>
<g transform="translate(17.2211, 62.0909)">
<rect x="-0.0490" y="3.0998" width="0.0980" height="2.6978" ry="0.0250" fill="currentColor"/>
</g>
<g color="rgb(100.0000%, 100.0000%, 100.0000%)">
<g transform="translate(20.2944, 64.3409)">
<rect x="0.1003" y="-0.6295" width="1.0030" height="1.2590" ry="0.0000" fill="currentColor"/>
</g>
</g>
<g transform="translate(20.3947, 64.9491)">
<text font-family="serif" font-weight="bold" font-size="1.7463" text-anchor="start" fill="currentColor">
<tspan>6</tspan>
</text>
</g>
<g transform="translate(20.8962, 62.0909)">
<rect x="-0.0490" y="3.0998" width="0.0980" height="2.6978" ry="0.0250" fill="currentColor"/>
</g>
<g transform="translate(4.4633, 61.3761)">
<text font-family="sans-serif" font-weight="bold" font-size="1.9599" text-anchor="start" fill="currentColor">
<tspan>T</tspan>
</text>
</g>
<g transform="translate(4.3566, 62.8058)">
<text font-family="sans-serif" font-weight="bold" font-size="1.9599" text-anchor="start" fill="currentColor">
<tspan>A</tspan>
</text>
</g>
<g transform="translate(4.3566, 64.2356)">
<text font-family="sans-serif" font-weight="bold" font-size="1.9599" text-anchor="start" fill="currentColor">
<tspan>B</tspan>
</text>
</g>
<g color="rgb(100.0000%, 100.0000%, 100.0000%)">
<g transform="translate(9.2692, 64.3409)">
<rect x="0.1003" y="-0.6295" width="1.0030" height="1.2590" ry="0.0000" fill="currentColor"/>
</g>
</g>
<g transform="translate(9.3695, 64.9491)">
<text font-family="serif" font-weight="bold" font-size="1.7463" text-anchor="start" fill="currentColor">
<tspan>6</tspan>
</text>
</g>
<g transform="translate(9.8710, 62.0909)">
<rect x="-0.0490" y="3.0998" width="0.0980" height="2.6978" ry="0.0250" fill="currentColor"/>
</g>
<g color="rgb(100.0000%, 100.0000%, 100.0000%)">
<g transform="translate(27.6445, 64.3409)">
<rect x="0.1003" y="-0.6295" width="1.0030" height="1.2590" ry="0.0000" fill="currentColor"/>
</g>
</g>
<g transform="translate(27.7448, 64.9491)">
<text font-family="serif" font-weight="bold" font-size="1.7463" text-anchor="start" fill="currentColor">
<tspan>9</tspan>
</text>
</g>
<g transform="translate(28.2463, 62.0909)">
<rect x="-0.0490" y="3.0998" width="0.0980" height="2.6978" ry="0.0250" fill="currentColor"/>
</g>
<g color="rgb(100.0000%, 100.0000%, 100.0000%)">
<g transform="translate(31.3195, 64.3409)">
<rect x="0.1003" y="-0.6295" width="1.0030" height="1.2590" ry="0.0000" fill="currentColor"/>
</g>
</g>
<g transform="translate(31.4198, 64.9491)">
<text font-family="serif" font-weight="bold" font-size="1.7463" text-anchor="start" fill="currentColor">
<tspan>9</tspan>
</text>
</g>
<g transform="translate(31.9213, 62.0909)">
<rect x="-0.0490" y="3.0998" width="0.0980" height="2.6978" ry="0.0250" fill="currentColor"/>
</g>
<g color="rgb(100.0000%, 100.0000%, 100.0000%)">
<g transform="translate(34.9946, 64.3409)">
<rect x="0.1003" y="-0.6295" width="1.0030" height="1.2590" ry="0.0000" fill="currentColor"/>
</g>
</g>
<g transform="translate(35.0949, 64.9491)">
<text font-family="serif" font-weight="bold" font-size="1.7463" text-anchor="start" fill="currentColor">
<tspan>9</tspan>
</text>
</g>
<g transform="translate(35.5964, 62.0909)">
<rect x="-0.0490" y="3.0998" width="0.0980" height="2.6978" ry="0.0250" fill="currentColor"/>
</g>
<g color="rgb(100.0000%, 100.0000%, 100.0000%)">
<g transform="translate(23.9694, 64.3409)">
<rect x="0.1003" y="-0.6295" width="1.0030" height="1.2590" ry="0.0000" fill="currentColor"/>
</g>
</g>
<g transform="translate(24.0697, 64.9491)">
<text font-family="serif" font-weight="bold" font-size="1.7463" text-anchor="start" fill="currentColor">
<tspan>9</tspan>
</text>
</g>
<g transform="translate(24.5712, 62.0909)">
<rect x="-0.0490" y="3.0998" width="0.0980" height="2.6978" ry="0.0250" fill="currentColor"/>
</g>
<g transform="translate(3.5566, 80.6663)">
<line stroke-linejoin="round" stroke-linecap="round" stroke-width="0.0754" stroke="currentColor" x1="0.0377" y1="0" x2="67.5376" y2="0"/>
</g>
<g transform="translate(3.5566, 79.1663)">
<line stroke-linejoin="round" stroke-linecap="round" stroke-width="0.0754" stroke="currentColor" x1="0.0377" y1="0" x2="67.5376" y2="0"/>
</g>
<g transform="translate(3.5566, 77.6663)">
<line stroke-linejoin="round" stroke-linecap="round" stroke-width="0.0754" stroke="currentColor" x1="0.0377" y1="0" x2="67.5376" y2="0"/>
</g>
<g transform="translate(3.5566, 76.1663)">
<line stroke-linejoin="round" stroke-linecap="round" stroke-width="0.0754" stroke="currentColor" x1="0.0377" y1="0" x2="67.5376" y2="0"/>
</g>
<g transform="translate(32.3403, 78.4163)">
<rect x="0.0000" y="-2.2500" width="0.1432" height="4.5000" ry="0.0000" fill="currentColor"/>
</g>
<g transform="translate(70.9887, 78.4163)">
<rect x="0.0000" y="-2.2500" width="0.1432" height="4.5000" ry="0.0000" fill="currentColor"/>
</g>
<g transform="translate(56.5822, 78.4163)">
<rect x="0.0000" y="-2.2500" width="0.1432" height="4.5000" ry="0.0000" fill="currentColor"/>
</g>
<g transform="translate(45.7076, 78.4163)">
<rect x="-0.0490" y="1.5998" width="0.0980" height="2.6978" ry="0.0250" fill="currentColor"/>
</g>
<g color="rgb(100.0000%, 100.0000%, 100.0000%)">
<g transform="translate(47.9827, 79.1663)">
<rect x="0.1003" y="-0.6295" width="1.0030" height="1.2590" ry="0.0000" fill="currentColor"/>
</g>
</g>
<g transform="translate(48.0830, 79.7745)">
<text font-family="serif" font-weight="bold" font-size="1.7463" text-anchor="start" fill="currentColor">
<tspan>6</tspan>
</text>
</g>
<g transform="translate(48.5844, 78.4163)">
<rect x="-0.0490" y="1.5998" width="0.0980" height="2.6978" ry="0.0250" fill="currentColor"/>
</g>
<g color="rgb(100.0000%, 100.0000%, 100.0000%)">
<g transform="translate(50.8595, 79.1663)">
<rect x="0.1003" y="-0.6295" width="1.0030" height="1.2590" ry="0.0000" fill="currentColor"/>
</g>
</g>
<g transform="translate(50.9598, 79.7745)">
<text font-family="serif" font-weight="bold" font-size="1.7463" text-anchor="start" fill="currentColor">
<tspan>6</tspan>
</text>
</g>
<g transform="translate(51.4613, 78.4163)">
<rect x="-0.0490" y="1.5998" width="0.0980" height="2.6978" ry="0.0250" fill="currentColor"/>
</g>
<g color="rgb(100.0000%, 100.0000%, 100.0000%)">
<g transform="translate(53.7363, 79.1663)">
<rect x="0.1003" y="-0.6295" width="1.0030" height="1.2590" ry="0.0000" fill="currentColor"/>
</g>
</g>
<g transform="translate(53.8366, 79.7745)">
<text font-family="serif" font-weight="bold" font-size="1.7463" text-anchor="start" fill="currentColor">
<tspan>6</tspan>
</text>
</g>
<g transform="translate(54.3381, 78.4163)">
<rect x="-0.0490" y="1.5998" width="0.0980" height="2.6978" ry="0.0250" fill="currentColor"/>
</g>
<g transform="translate(9.9094, 82.7140)">
<polygon stroke-linejoin="round" stroke-linecap="round" stroke-width="0.0500" fill="currentColor" stroke="currentColor" points="8.7034 -0.2150 8.7034 0.2150 0.0250 0.2150 0.0250 -0.2150"/>
</g>
<g color="rgb(100.0000%, 100.0000%, 100.0000%)">
<g transform="translate(36.4753, 79.1663)">
<rect x="0.1003" y="-0.6295" width="1.0030" height="1.2590" ry="0.0000" fill="currentColor"/>
</g>
</g>
<g transform="translate(36.5756, 79.7745)">
<text font-family="serif" font-weight="bold" font-size="1.7463" text-anchor="start" fill="currentColor">
<tspan>6</tspan>
</text>
</g>
<g transform="translate(37.0771, 78.4163)">
<rect x="-0.0490" y="1.5998" width="0.0980" height="2.6978" ry="0.0250" fill="currentColor"/>
</g>
<g color="rgb(100.0000%, 100.0000%, 100.0000%)">
<g transform="translate(39.3522, 79.1663)">
<rect x="0.1003" y="-0.6295" width="1.0030" height="1.2590" ry="0.0000" fill="currentColor"/>
</g>
</g>
<g transform="translate(39.4525, 79.7745)">
<text font-family="serif" font-weight="bold" font-size="1.7463" text-anchor="start" fill="currentColor">
<tspan>6</tspan>
</text>
</g>
<g transform="translate(39.9540, 78.4163)">
<rect x="-0.0490" y="1.5998" width="0.0980" height="2.6978" ry="0.0250" fill="currentColor"/>
</g>
<g color="rgb(100.0000%, 100.0000%, 100.0000%)">
<g transform="translate(45.1058, 79.1663)">
<rect x="0.1003" y="-0.6295" width="1.0030" height="1.2590" ry="0.0000" fill="currentColor"/>
</g>
</g>
<g transform="translate(45.2061, 79.7745)">
<text font-family="serif" font-weight="bold" font-size="1.7463" text-anchor="start" fill="currentColor">
<tspan>6</tspan>
</text>
</g>
<g color="rgb(100.0000%, 100.0000%, 100.0000%)">
<g transform="translate(42.2290, 79.1663)">
<rect x="0.1003" y="-0.6295" width="1.0030" height="1.2590" ry="0.0000" fill="currentColor"/>
</g>
</g>
<g transform="translate(42.3293, 79.7745)">
<text font-family="serif" font-weight="bold" font-size="1.7463" text-anchor="start" fill="currentColor">
<tspan>6</tspan>
</text>
</g>
<g transform="translate(42.8308, 78.4163)">
<rect x="-0.0490" y="1.5998" width="0.0980" height="2.6978" ry="0.0250" fill="currentColor"/>
</g>
<g color="rgb(100.0000%, 100.0000%, 100.0000%)">
<g transform="translate(63.5273, 80.6663)">
<rect x="0.1003" y="-0.6295" width="1.0030" height="1.2590" ry="0.0000" fill="currentColor"/>
</g>
</g>
<g transform="translate(63.6276, 81.2745)">
<text font-family="serif" font-weight="bold" font-size="1.7463" text-anchor="start" fill="currentColor">
<tspan>6</tspan>
</text>
</g>
<g transform="translate(65.0873, 79.9163)">
<path transform="scale(0.0040, -0.0040)" d="M0 0c0 32 25 57 57 57s57 -25 57 -57s-25 -57 -57 -57s-57 25 -57 57z" fill="currentColor"/>
</g>
<g transform="translate(63.8790, 78.4163)">
<rect x="-0.0490" y="3.0998" width="0.0980" height="3.4002" ry="0.0250" fill="currentColor"/>
</g>
<g transform="translate(64.3790, 78.4163)">
<rect x="-0.0490" y="3.0998" width="0.0980" height="3.4002" ry="0.0250" fill="currentColor"/>
</g>
<g transform="translate(58.3932, 84.2140)">
<polygon stroke-linejoin="round" stroke-linecap="round" stroke-width="0.0500" fill="currentColor" stroke="currentColor" points="2.8662 -0.2150 2.8662 0.2150 0.0250 0.2150 0.0250 -0.2150"/>
</g>
<g transform="translate(45.6586, 82.7140)">
<polygon stroke-linejoin="round" stroke-linecap="round" stroke-width="0.0500" fill="currentColor" stroke="currentColor" points="8.7034 -0.2150 8.7034 0.2150 0.0250 0.2150 0.0250 -0.2150"/>
</g>
<g transform="translate(34.1513, 82.7140)">
<polygon stroke-linejoin="round" stroke-linecap="round" stroke-width="0.0500" fill="currentColor" stroke="currentColor" points="8.7034 -0.2150 8.7034 0.2150 0.0250 0.2150 0.0250 -0.2150"/>
</g>
<g transform="translate(21.4167, 82.7140)">
<polygon stroke-linejoin="round" stroke-linecap="round" stroke-width="0.0500" fill="currentColor" stroke="currentColor" points="8.7034 -0.2150 8.7034 0.2150 0.0250 0.2150 0.0250 -0.2150"/>
</g>
<g transform="translate(58.4422, 75.3326)">
<path transform="scale(0.0040, -0.0040)" d="M-212 91c-8 2 -13 9 -13 17c0 10 10 19 21 16l412 -107c12 0 17 -5 17 -17s-5 -17 -17 -17l-412 -107c-11 -3 -21 6 -21 16c0 8 5 15 13 17l256 66l140 25l-140 25z" fill="currentColor"/>
</g>
<g color="rgb(100.0000%, 100.0000%, 100.0000%)">
<g transform="translate(57.8404, 80.6663)">
<rect x="0.1003" y="-0.6295" width="1.0030" height="1.2590" ry="0.0000" fill="currentColor"/>
</g>
</g>
<g transform="translate(57.9407, 81.2745)">
<text font-family="serif" font-weight="bold" font-size="1.7463" text-anchor="start" fill="currentColor">
<tspan>6</tspan>
</text>
</g>
<g transform="translate(58.4422, 78.4163)">
<rect x="-0.0490" y="3.0998" width="0.0980" height="2.6978" ry="0.0250" fill="currentColor"/>
</g>
<g color="rgb(100.0000%, 100.0000%, 100.0000%)">
<g transform="translate(60.7173, 80.6663)">
<rect x="-0.0000" y="-0.4277" width="1.0364" height="0.8555" ry="0.0000" fill="currentColor"/>
</g>
</g>
<g color="rgb(100.0000%, 100.0000%, 100.0000%)">
<g transform="translate(60.7173, 80.6663)">
<rect x="-0.0000" y="-0.4277" width="1.0364" height="0.8555" ry="0.0000" fill="currentColor"/>
</g>
</g>
<g transform="translate(60.7173, 80.6663)">
<path transform="scale(0.0032, -0.0032)" d="M163 31l125 101c2 2 5 3 8 3s6 -1 8 -3l18 -14c3 -2 4 -6 4 -10s-1 -8 -4 -10l-121 -98l121 -98c3 -2 4 -6 4 -10s-1 -8 -4 -10l-18 -14c-2 -2 -5 -3 -8 -3s-6 1 -8 3l-125 101l-125 -101c-2 -2 -5 -3 -8 -3s-6 1 -8 3l-17 14c-3 2 -5 6 -5 10s2 8 5 10l120 98l-120 98
c-3 2 -5 6 -5 10s2 8 5 10l17 14c2 2 5 3 8 3s6 -1 8 -3z" fill="currentColor"/>
</g>
<g transform="translate(61.2355, 78.4163)">
<rect x="-0.0490" y="2.8274" width="0.0980" height="2.9702" ry="0.0250" fill="currentColor"/>
</g>
<g color="rgb(100.0000%, 100.0000%, 100.0000%)">
<g transform="translate(12.2334, 79.1663)">
<rect x="0.1003" y="-0.6295" width="1.0030" height="1.2590" ry="0.0000" fill="currentColor"/>
</g>
</g>
<g transform="translate(12.3337, 79.7745)">
<text font-family="serif" font-weight="bold" font-size="1.7463" text-anchor="start" fill="currentColor">
<tspan>6</tspan>
</text>
</g>
<g transform="translate(12.8352, 78.4163)">
<rect x="-0.0490" y="1.5998" width="0.0980" height="2.6978" ry="0.0250" fill="currentColor"/>
</g>
<g color="rgb(100.0000%, 100.0000%, 100.0000%)">
<g transform="translate(15.1102, 79.1663)">
<rect x="0.1003" y="-0.6295" width="1.0030" height="1.2590" ry="0.0000" fill="currentColor"/>
</g>
</g>
<g transform="translate(15.2105, 79.7745)">
<text font-family="serif" font-weight="bold" font-size="1.7463" text-anchor="start" fill="currentColor">
<tspan>6</tspan>
</text>
</g>
<g transform="translate(15.7120, 78.4163)">
<rect x="-0.0490" y="1.5998" width="0.0980" height="2.6978" ry="0.0250" fill="currentColor"/>
</g>
<g color="rgb(100.0000%, 100.0000%, 100.0000%)">
<g transform="translate(17.9871, 79.1663)">
<rect x="0.1003" y="-0.6295" width="1.0030" height="1.2590" ry="0.0000" fill="currentColor"/>
</g>
</g>
<g transform="translate(18.0874, 79.7745)">
<text font-family="serif" font-weight="bold" font-size="1.7463" text-anchor="start" fill="currentColor">
<tspan>6</tspan>
</text>
</g>
<g transform="translate(18.5889, 78.4163)">
<rect x="-0.0490" y="1.5998" width="0.0980" height="2.6978" ry="0.0250" fill="currentColor"/>
</g>
<g color="rgb(100.0000%, 100.0000%, 100.0000%)">
<g transform="translate(20.8639, 79.1663)">
<rect x="0.1003" y="-0.6295" width="1.0030" height="1.2590" ry="0.0000" fill="currentColor"/>
</g>
</g>
<g transform="translate(20.9642, 79.7745)">
<text font-family="serif" font-weight="bold" font-size="1.7463" text-anchor="start" fill="currentColor">
<tspan>6</tspan>
</text>
</g>
<g transform="translate(21.4657, 78.4163)">
<rect x="-0.0490" y="1.5998" width="0.0980" height="2.6978" ry="0.0250" fill="currentColor"/>
</g>
<g transform="translate(4.4633, 77.7014)">
<text font-family="sans-serif" font-weight="bold" font-size="1.9599" text-anchor="start" fill="currentColor">
<tspan>T</tspan>
</text>
</g>
<g transform="translate(4.3566, 79.1312)">
<text font-family="sans-serif" font-weight="bold" font-size="1.9599" text-anchor="start" fill="currentColor">
<tspan>A</tspan>
</text>
</g>
<g transform="translate(4.3566, 80.5609)">
<text font-family="sans-serif" font-weight="bold" font-size="1.9599" text-anchor="start" fill="currentColor">
<tspan>B</tspan>
</text>
</g>
<g color="rgb(100.0000%, 100.0000%, 100.0000%)">
<g transform="translate(9.3566, 79.1663)">
<rect x="0.1003" y="-0.6295" width="1.0030" height="1.2590" ry="0.0000" fill="currentColor"/>
</g>
</g>
<g transform="translate(9.4569, 79.7745)">
<text font-family="serif" font-weight="bold" font-size="1.7463" text-anchor="start" fill="currentColor">
<tspan>6</tspan>
</text>
</g>
<g transform="translate(9.9584, 78.4163)">
<rect x="-0.0490" y="1.5998" width="0.0980" height="2.6978" ry="0.0250" fill="currentColor"/>
</g>
<g color="rgb(100.0000%, 100.0000%, 100.0000%)">
<g transform="translate(29.4944, 79.1663)">
<rect x="0.1003" y="-0.6295" width="1.0030" height="1.2590" ry="0.0000" fill="currentColor"/>
</g>
</g>
<g transform="translate(29.5947, 79.7745)">
<text font-family="serif" font-weight="bold" font-size="1.7463" text-anchor="start" fill="currentColor">
<tspan>6</tspan>
</text>
</g>
<g transform="translate(30.0962, 78.4163)">
<rect x="-0.0490" y="1.5998" width="0.0980" height="2.6978" ry="0.0250" fill="currentColor"/>
</g>
<g color="rgb(100.0000%, 100.0000%, 100.0000%)">
<g transform="translate(33.5985, 79.1663)">
<rect x="0.1003" y="-0.6295" width="1.0030" height="1.2590" ry="0.0000" fill="currentColor"/>
</g>
</g>
<g transform="translate(33.6988, 79.7745)">
<text font-family="serif" font-weight="bold" font-size="1.7463" text-anchor="start" fill="currentColor">
<tspan>6</tspan>
</text>
</g>
<g transform="translate(34.2003, 78.4163)">
<rect x="-0.0490" y="1.5998" width="0.0980" height="2.6978" ry="0.0250" fill="currentColor"/>
</g>
<g transform="translate(24.3425, 78.4163)">
<rect x="-0.0490" y="1.5998" width="0.0980" height="2.6978" ry="0.0250" fill="currentColor"/>
</g>
<g color="rgb(100.0000%, 100.0000%, 100.0000%)">
<g transform="translate(23.7407, 79.1663)">
<rect x="0.1003" y="-0.6295" width="1.0030" height="1.2590" ry="0.0000" fill="currentColor"/>
</g>
</g>
<g transform="translate(23.8410, 79.7745)">
<text font-family="serif" font-weight="bold" font-size="1.7463" text-anchor="start" fill="currentColor">
<tspan>6</tspan>
</text>
</g>
<g color="rgb(100.0000%, 100.0000%, 100.0000%)">
<g transform="translate(26.6176, 79.1663)">
<rect x="0.1003" y="-0.6295" width="1.0030" height="1.2590" ry="0.0000" fill="currentColor"/>
</g>
</g>
<g transform="translate(26.7179, 79.7745)">
<text font-family="serif" font-weight="bold" font-size="1.7463" text-anchor="start" fill="currentColor">
<tspan>6</tspan>
</text>
</g>
<g transform="translate(27.2193, 78.4163)">
<rect x="-0.0490" y="1.5998" width="0.0980" height="2.6978" ry="0.0250" fill="currentColor"/>
</g>
</svg>
